<svg width="542" height="438" viewBox="0 0 542 438" fill="none" xmlns="http://www.w3.org/2000/svg">
<path d="M294.375 372.244C293.792 372.242 293.226 372.054 292.758 371.707C292.29 371.361 291.946 370.874 291.775 370.317C291.604 369.761 291.616 369.164 291.809 368.615C292.002 368.066 292.366 367.593 292.848 367.265C294.538 366.139 296.229 364.921 297.847 363.631C298.13 363.411 298.454 363.248 298.8 363.152C299.146 363.057 299.507 363.03 299.863 363.074C300.219 363.118 300.563 363.231 300.876 363.408C301.188 363.585 301.462 363.821 301.683 364.104C301.904 364.387 302.067 364.71 302.163 365.056C302.259 365.401 302.285 365.763 302.241 366.119C302.197 366.475 302.084 366.818 301.907 367.13C301.73 367.443 301.493 367.717 301.211 367.938C299.392 369.282 297.684 370.572 295.884 371.771C295.439 372.075 294.914 372.24 294.375 372.244V372.244Z" fill="#EC671B"/>
<path d="M248.361 384.998H248.051C243.612 384.533 239.257 383.463 235.107 381.818C234.76 381.696 234.441 381.504 234.17 381.256C233.899 381.007 233.681 380.706 233.529 380.37C233.378 380.035 233.296 379.672 233.288 379.305C233.281 378.937 233.348 378.571 233.485 378.23C233.623 377.889 233.828 377.579 234.089 377.319C234.349 377.059 234.66 376.855 235.002 376.718C235.344 376.581 235.71 376.515 236.078 376.524C236.446 376.532 236.808 376.615 237.143 376.767C240.832 378.227 244.705 379.175 248.651 379.584C249.375 379.622 250.053 379.946 250.537 380.485C251.021 381.023 251.272 381.731 251.233 382.454C251.194 383.177 250.87 383.855 250.331 384.339C249.793 384.823 249.084 385.073 248.361 385.034V384.998ZM266.286 384.108C265.928 384.141 265.567 384.104 265.223 383.997C264.88 383.891 264.56 383.719 264.283 383.489C264.007 383.26 263.778 382.978 263.61 382.66C263.442 382.342 263.338 381.995 263.305 381.637C263.271 381.279 263.309 380.918 263.415 380.574C263.521 380.231 263.694 379.912 263.923 379.635C264.153 379.358 264.435 379.13 264.753 378.962C265.071 378.794 265.419 378.69 265.777 378.657C269.753 377.864 273.652 376.727 277.431 375.259C277.765 375.13 278.121 375.069 278.48 375.078C278.838 375.086 279.191 375.166 279.518 375.311C279.846 375.456 280.141 375.664 280.388 375.923C280.635 376.182 280.829 376.488 280.958 376.822C281.087 377.156 281.148 377.512 281.14 377.87C281.131 378.228 281.052 378.581 280.906 378.908C280.761 379.235 280.553 379.531 280.294 379.778C280.034 380.024 279.728 380.218 279.394 380.347C275.32 381.92 271.117 383.136 266.832 383.98C266.655 384.041 266.472 384.084 266.286 384.108V384.108ZM150.533 372.261C149.814 372.257 149.126 371.971 148.616 371.464C148.106 370.958 147.815 370.272 147.806 369.554C147.801 369.197 147.867 368.843 147.999 368.511C148.132 368.18 148.329 367.878 148.58 367.623C148.83 367.368 149.128 367.165 149.457 367.026C149.786 366.886 150.139 366.813 150.496 366.811C154.587 366.811 158.786 366.629 162.986 366.375C163.709 366.331 164.42 366.577 164.962 367.057C165.504 367.538 165.833 368.214 165.877 368.937C165.92 369.659 165.674 370.37 165.194 370.912C164.713 371.453 164.037 371.782 163.313 371.825C159.023 372.08 154.732 372.243 150.587 372.28L150.533 372.261ZM132.498 371.68H132.298C127.971 371.371 123.698 370.899 119.572 370.317C118.848 370.216 118.195 369.832 117.755 369.249C117.315 368.667 117.125 367.933 117.226 367.211C117.328 366.488 117.712 365.835 118.295 365.395C118.878 364.956 119.612 364.766 120.335 364.867C124.335 365.43 128.498 365.884 132.698 366.193C133.056 366.206 133.408 366.29 133.734 366.439C134.06 366.588 134.353 366.8 134.597 367.062C134.841 367.324 135.031 367.632 135.155 367.968C135.28 368.303 135.338 368.66 135.325 369.018C135.312 369.376 135.228 369.728 135.079 370.054C134.93 370.379 134.718 370.672 134.455 370.916C134.193 371.16 133.885 371.35 133.549 371.475C133.213 371.599 132.856 371.657 132.498 371.644V371.68ZM221.854 371.353C221.434 371.355 221.021 371.259 220.645 371.073C220.269 370.887 219.942 370.616 219.69 370.281C218.114 368.225 216.738 366.022 215.582 363.704L214.782 363.886L211.891 364.558C211.198 364.694 210.478 364.555 209.885 364.172C209.292 363.788 208.871 363.189 208.711 362.502C208.55 361.814 208.663 361.091 209.026 360.485C209.389 359.879 209.973 359.437 210.655 359.253L213.364 358.635C213.358 358.593 213.358 358.55 213.364 358.508C213.197 358.163 213.105 357.787 213.094 357.405C213.082 357.023 213.152 356.642 213.297 356.288C213.442 355.934 213.661 355.615 213.938 355.351C214.215 355.087 214.545 354.884 214.905 354.756C215.266 354.627 215.65 354.577 216.031 354.606C216.413 354.636 216.784 354.746 217.121 354.928C217.457 355.111 217.751 355.362 217.984 355.666C218.217 355.969 218.383 356.319 218.472 356.691L218.745 357.418L222.89 356.364C223.243 356.243 223.617 356.196 223.99 356.225C224.362 356.255 224.724 356.361 225.054 356.536C225.383 356.711 225.673 356.952 225.906 357.244C226.139 357.535 226.309 357.872 226.406 358.232C226.504 358.592 226.526 358.969 226.472 359.338C226.417 359.707 226.288 360.061 226.091 360.378C225.895 360.695 225.635 360.969 225.328 361.181C225.021 361.394 224.674 361.541 224.308 361.615L221.09 362.45C221.954 364.059 222.945 365.596 224.054 367.047C224.491 367.621 224.684 368.345 224.588 369.06C224.493 369.775 224.117 370.423 223.544 370.862C223.038 371.224 222.42 371.398 221.799 371.353H221.854ZM181.094 370.099C180.735 370.122 180.376 370.074 180.037 369.958C179.697 369.842 179.384 369.66 179.115 369.423C178.845 369.186 178.625 368.898 178.467 368.576C178.309 368.255 178.216 367.905 178.194 367.547C178.171 367.189 178.219 366.83 178.335 366.491C178.451 366.151 178.633 365.838 178.87 365.569C179.108 365.3 179.396 365.08 179.718 364.922C180.04 364.764 180.39 364.671 180.748 364.649C184.821 364.122 188.984 363.486 193.129 362.832C193.852 362.709 194.595 362.878 195.193 363.302C195.791 363.727 196.197 364.371 196.32 365.094C196.442 365.817 196.273 366.559 195.849 367.157C195.424 367.755 194.779 368.16 194.056 368.283C189.838 369.009 185.584 369.645 181.457 370.099H181.094ZM102.264 366.884C102.037 366.88 101.811 366.85 101.591 366.793C97.3917 365.739 93.2466 364.503 89.2833 363.159C88.9442 363.04 88.6321 362.855 88.3645 362.615C88.097 362.375 87.8794 362.085 87.724 361.761C87.5687 361.437 87.4788 361.086 87.4593 360.727C87.4399 360.368 87.4913 360.009 87.6107 359.671C87.73 359.332 87.915 359.02 88.1551 358.752C88.3951 358.485 88.6854 358.267 89.0096 358.112C89.3337 357.957 89.6853 357.867 90.0442 357.848C90.4031 357.828 90.7623 357.88 91.1013 357.999C94.9191 359.307 98.9006 360.506 102.973 361.524C103.696 361.613 104.354 361.985 104.803 362.56C105.251 363.134 105.453 363.862 105.364 364.585C105.275 365.308 104.902 365.966 104.327 366.414C103.753 366.862 103.024 367.064 102.3 366.974L102.264 366.884ZM73.5573 356.309C73.1282 356.31 72.7048 356.211 72.3211 356.019C68.4669 354.093 64.7036 351.949 61.1039 349.678C60.4979 349.286 60.0705 348.672 59.914 347.969C59.7575 347.265 59.8845 346.528 60.2676 345.917C60.4582 345.613 60.7072 345.35 61.0002 345.144C61.2932 344.937 61.6244 344.791 61.9745 344.713C62.3245 344.635 62.6866 344.628 63.0396 344.691C63.3926 344.754 63.7296 344.887 64.0309 345.081C67.467 347.261 71.0848 349.296 74.7754 351.149C75.3231 351.425 75.762 351.876 76.0212 352.432C76.2805 352.987 76.3449 353.613 76.2041 354.21C76.0633 354.806 75.7256 355.338 75.2453 355.719C74.7651 356.099 74.1704 356.308 73.5573 356.309V356.309ZM240.707 356.109C240.073 356.112 239.458 355.894 238.968 355.493C238.478 355.092 238.142 354.533 238.02 353.911C237.897 353.29 237.995 352.646 238.296 352.089C238.597 351.532 239.083 351.097 239.67 350.859C243.421 349.371 247.014 347.515 250.397 345.317C250.997 344.944 251.719 344.819 252.41 344.968C253.101 345.117 253.707 345.528 254.1 346.114C254.494 346.701 254.644 347.417 254.52 348.112C254.395 348.808 254.006 349.427 253.433 349.841C249.749 352.244 245.833 354.271 241.743 355.891C241.416 356.033 241.063 356.107 240.707 356.109V356.109ZM212.891 342.701C212.514 342.702 212.14 342.625 211.794 342.475C211.448 342.324 211.137 342.104 210.881 341.827C210.625 341.55 210.429 341.224 210.305 340.867C210.182 340.511 210.134 340.133 210.164 339.757C210.229 335.192 211.154 330.68 212.891 326.458C213.178 325.793 213.717 325.269 214.391 325.002C215.064 324.734 215.816 324.745 216.481 325.032C217.147 325.318 217.671 325.857 217.939 326.53C218.206 327.203 218.195 327.955 217.909 328.62C216.435 332.201 215.658 336.031 215.618 339.903C215.613 340.622 215.324 341.311 214.813 341.818C214.302 342.325 213.611 342.61 212.891 342.61V342.701ZM48.1413 339.412C47.4737 339.417 46.8274 339.178 46.3233 338.74C43.084 335.912 39.9952 332.916 37.0696 329.765C36.6945 329.222 36.5294 328.561 36.6048 327.905C36.6802 327.25 36.991 326.644 37.4796 326.2C37.9681 325.756 38.6012 325.504 39.2614 325.492C39.9215 325.479 40.5639 325.706 41.0692 326.131C43.8662 329.144 46.8216 332.007 49.923 334.707C50.3428 335.073 50.6403 335.559 50.7754 336.099C50.9105 336.639 50.8768 337.208 50.6787 337.728C50.4807 338.249 50.1278 338.696 49.6677 339.01C49.2075 339.324 48.6622 339.49 48.105 339.485L48.1413 339.412ZM261.432 335.942C260.723 335.947 260.04 335.674 259.53 335.181C259.02 334.689 258.724 334.016 258.705 333.308C258.311 329.714 256.768 326.344 254.305 323.696C253.823 323.147 253.579 322.429 253.627 321.699C253.675 320.97 254.01 320.29 254.56 319.808C255.11 319.326 255.828 319.082 256.558 319.13C257.288 319.178 257.968 319.513 258.451 320.062C261.753 323.64 263.763 328.22 264.159 333.071C264.169 333.429 264.108 333.786 263.98 334.12C263.852 334.454 263.659 334.76 263.412 335.02C263.166 335.28 262.87 335.489 262.543 335.634C262.216 335.78 261.863 335.86 261.505 335.869L261.432 335.942ZM228.18 318.482C227.539 318.481 226.919 318.255 226.428 317.842C225.938 317.43 225.608 316.858 225.498 316.227C225.387 315.596 225.502 314.946 225.823 314.391C226.144 313.837 226.651 313.413 227.253 313.195C231.605 311.627 236.241 311.008 240.852 311.378C241.575 311.44 242.244 311.788 242.711 312.343C243.178 312.898 243.405 313.616 243.343 314.339C243.28 315.062 242.933 315.73 242.377 316.197C241.821 316.664 241.103 316.891 240.379 316.828C236.562 316.51 232.72 317.006 229.108 318.282C228.807 318.372 228.494 318.409 228.18 318.391V318.482ZM27.7794 316.665C27.3406 316.665 26.9081 316.56 26.5188 316.357C26.1295 316.155 25.7949 315.861 25.5433 315.502C23.1071 312.05 20.7619 308.416 18.562 304.728C18.1932 304.104 18.0875 303.359 18.2682 302.657C18.4489 301.955 18.9012 301.354 19.5256 300.985C20.15 300.617 20.8954 300.511 21.5977 300.691C22.3001 300.872 22.9019 301.324 23.2707 301.948C25.3796 305.582 27.634 309.016 29.9974 312.359C30.2062 312.65 30.355 312.98 30.4352 313.33C30.5153 313.679 30.5252 314.041 30.4643 314.394C30.4035 314.747 30.273 315.085 30.0805 315.388C29.888 315.69 29.6373 315.951 29.3429 316.156C28.8722 316.437 28.3257 316.564 27.7794 316.52V316.665ZM12.7262 289.902C12.1986 289.904 11.6818 289.752 11.2393 289.465C10.7968 289.178 10.448 288.768 10.2355 288.285C8.41746 284.27 6.89032 280.236 5.58134 276.276C5.44261 275.931 5.37589 275.561 5.38526 275.19C5.39463 274.818 5.47991 274.453 5.63585 274.116C5.79179 273.778 6.01509 273.476 6.29204 273.229C6.569 272.981 6.89375 272.792 7.24634 272.674C7.59893 272.556 7.97191 272.512 8.34237 272.543C8.71283 272.575 9.07293 272.681 9.40056 272.857C9.72819 273.033 10.0164 273.273 10.2475 273.564C10.4787 273.856 10.6478 274.191 10.7445 274.549C12.0172 278.347 13.5261 282.235 15.2169 286.069C15.4017 286.483 15.4798 286.938 15.4442 287.391C15.4085 287.843 15.2602 288.28 15.0127 288.661C14.7653 289.042 14.4265 289.355 14.0271 289.572C13.6278 289.788 13.1806 289.902 12.7262 289.902V289.902ZM3.83603 260.65C3.18697 260.646 2.56055 260.411 2.06797 259.989C1.57538 259.566 1.2485 258.983 1.14536 258.343C0.439531 254.06 0.0566685 249.729 -2.65571e-08 245.388C-0.00239547 245.031 0.0657719 244.676 0.20061 244.344C0.335448 244.013 0.534316 243.711 0.785858 243.456C1.0374 243.201 1.33669 242.999 1.66664 242.859C1.99659 242.72 2.35074 242.647 2.70886 242.645V242.645C3.41978 242.64 4.10459 242.912 4.61738 243.404C5.13018 243.897 5.4304 244.569 5.45408 245.279C5.48747 249.351 5.8278 253.414 6.47217 257.434C6.58196 258.147 6.4044 258.875 5.97841 259.457C5.55242 260.04 4.91276 260.429 4.19964 260.541C4.05927 260.596 3.91271 260.632 3.76331 260.65H3.83603ZM326.336 241.519H326.19C325.47 241.476 324.796 241.151 324.315 240.612C323.835 240.074 323.587 239.368 323.627 238.648C323.627 237.54 323.718 236.486 323.718 235.45C323.723 232.515 323.473 229.585 322.972 226.693C322.851 225.98 323.015 225.248 323.431 224.656C323.846 224.064 324.478 223.66 325.19 223.531C325.543 223.469 325.904 223.477 326.253 223.554C326.602 223.632 326.933 223.778 327.225 223.984C327.518 224.191 327.766 224.453 327.957 224.755C328.148 225.058 328.276 225.395 328.336 225.748C328.894 228.952 329.174 232.198 329.172 235.45C329.172 236.577 329.135 237.739 329.063 238.939C329.025 239.636 328.722 240.292 328.214 240.772C327.707 241.252 327.034 241.52 326.336 241.519V241.519ZM4.92685 230.254C4.69183 230.289 4.45284 230.289 4.21782 230.254C3.87144 230.161 3.54677 230.001 3.26237 229.783C2.97798 229.564 2.73946 229.292 2.56046 228.982C2.38146 228.671 2.2655 228.328 2.21921 227.973C2.17292 227.618 2.19722 227.257 2.29071 226.911C3.42889 222.659 5.01965 218.542 7.03576 214.629C7.36846 213.985 7.94324 213.5 8.63365 213.281C9.32407 213.061 10.0736 213.124 10.7173 213.457C11.361 213.789 11.8461 214.364 12.066 215.054C12.286 215.744 12.2226 216.493 11.8899 217.136C10.0399 220.696 8.58877 224.45 7.56299 228.328C7.39038 228.89 7.04037 229.382 6.56524 229.729C6.09011 230.076 5.51537 230.26 4.92685 230.254V230.254ZM319.445 212.085C318.973 212.086 318.508 211.964 318.097 211.732C317.686 211.499 317.343 211.164 317.1 210.759C315.036 207.337 312.597 204.156 309.828 201.275C309.327 200.752 309.053 200.051 309.069 199.327C309.084 198.603 309.387 197.915 309.91 197.414C310.433 196.913 311.134 196.64 311.858 196.655C312.583 196.67 313.272 196.973 313.773 197.495C316.832 200.675 319.527 204.185 321.809 207.961C321.994 208.267 322.117 208.607 322.17 208.961C322.224 209.315 322.207 209.677 322.121 210.024C322.035 210.372 321.881 210.699 321.669 210.987C321.456 211.275 321.188 211.519 320.882 211.703C320.434 212.003 319.911 212.167 319.373 212.176L319.445 212.085ZM20.1437 204.109C19.6102 204.091 19.0937 203.917 18.6582 203.608C18.2228 203.3 17.8875 202.871 17.6939 202.373C17.5003 201.876 17.457 201.333 17.5693 200.812C17.6816 200.29 17.9446 199.813 18.3257 199.44C21.4776 196.387 24.9245 193.655 28.6157 191.282C28.9146 191.057 29.2565 190.896 29.6202 190.809C29.9839 190.722 30.3616 190.71 30.7299 190.776C31.0982 190.841 31.4492 190.981 31.761 191.187C32.0729 191.393 32.3389 191.662 32.5426 191.975C32.7463 192.288 32.8833 192.64 32.9451 193.009C33.0069 193.378 32.9921 193.755 32.9018 194.118C32.8114 194.48 32.6473 194.821 32.4198 195.117C32.1923 195.414 31.9061 195.661 31.5791 195.842C28.1936 198.033 25.0276 200.546 22.1254 203.346C21.8623 203.598 21.5516 203.796 21.2114 203.927C20.8711 204.058 20.5082 204.12 20.1437 204.109V204.109ZM297.684 190.936C297.167 190.933 296.662 190.781 296.229 190.5C292.752 188.317 289.145 186.345 285.43 184.596C284.777 184.285 284.274 183.727 284.032 183.046C283.79 182.364 283.828 181.615 284.139 180.962C284.45 180.309 285.008 179.806 285.69 179.564C286.372 179.322 287.122 179.361 287.775 179.672C291.682 181.524 295.477 183.605 299.138 185.904C299.64 186.219 300.026 186.69 300.237 187.244C300.447 187.799 300.471 188.407 300.304 188.976C300.138 189.545 299.79 190.045 299.314 190.399C298.838 190.752 298.259 190.941 297.665 190.936H297.684ZM46.0688 188.12C45.5396 188.107 45.0263 187.937 44.593 187.634C44.1596 187.33 43.8256 186.905 43.6326 186.412C43.3633 185.743 43.371 184.993 43.6539 184.329C43.9368 183.665 44.4718 183.14 45.1416 182.87C48.7776 181.38 52.8318 179.981 57.2678 178.618C57.617 178.483 57.9904 178.421 58.3646 178.436C58.7388 178.451 59.1059 178.543 59.443 178.706C59.7801 178.869 60.0799 179.1 60.3238 179.384C60.5677 179.668 60.7504 180 60.8605 180.357C60.9707 180.715 61.0059 181.092 60.964 181.464C60.9221 181.836 60.804 182.195 60.617 182.519C60.4301 182.844 60.1782 183.126 59.8773 183.349C59.5763 183.572 59.2326 183.73 58.8677 183.814C54.5771 185.141 50.7593 186.485 47.1778 187.92C46.8272 188.067 46.4486 188.136 46.0688 188.12V188.12ZM75.3935 179.308C74.6703 179.39 73.9441 179.182 73.3747 178.729C72.8053 178.275 72.4394 177.615 72.3574 176.892C72.2755 176.169 72.4842 175.443 72.9376 174.874C73.3911 174.305 74.0522 173.94 74.7754 173.858C78.4115 173.004 82.3202 172.041 87.1562 171.096C87.5145 170.998 87.8892 170.974 88.257 171.026C88.6249 171.078 88.9783 171.205 89.2955 171.398C89.6127 171.591 89.887 171.848 90.1016 172.151C90.3163 172.454 90.4666 172.797 90.5435 173.161C90.6205 173.524 90.6223 173.899 90.5489 174.263C90.4756 174.627 90.3285 174.972 90.1169 175.277C89.9052 175.583 89.6334 175.841 89.3181 176.038C89.0028 176.234 88.6507 176.364 88.2833 176.42C83.4838 177.455 79.5932 178.236 76.0299 179.163C75.822 179.229 75.6092 179.277 75.3935 179.308V179.308ZM269.922 178.255C269.629 178.233 269.34 178.166 269.068 178.055C265.268 176.819 261.25 175.656 257.123 174.603C256.776 174.516 256.449 174.361 256.162 174.148C255.874 173.934 255.631 173.667 255.447 173.36C255.263 173.052 255.142 172.712 255.089 172.358C255.037 172.004 255.055 171.643 255.142 171.296C255.229 170.949 255.384 170.622 255.597 170.335C255.811 170.047 256.078 169.805 256.386 169.621C256.693 169.437 257.033 169.315 257.388 169.263C257.742 169.211 258.103 169.228 258.451 169.316C262.723 170.406 266.85 171.605 270.759 172.949C271.38 173.146 271.911 173.559 272.254 174.113C272.597 174.667 272.731 175.326 272.629 175.97C272.528 176.614 272.2 177.2 271.703 177.623C271.206 178.045 270.575 178.276 269.922 178.273V178.255ZM105.446 173.022C104.722 173.085 104.004 172.858 103.448 172.391C102.892 171.924 102.545 171.256 102.482 170.533C102.419 169.81 102.647 169.092 103.114 168.537C103.581 167.981 104.25 167.634 104.973 167.571C109.045 166.845 113.263 166.172 117.517 165.555C117.875 165.503 118.24 165.523 118.591 165.613C118.941 165.702 119.27 165.86 119.56 166.077C119.85 166.293 120.093 166.565 120.278 166.876C120.462 167.187 120.584 167.531 120.635 167.889C120.686 168.247 120.667 168.612 120.577 168.962C120.487 169.312 120.33 169.641 120.113 169.931C119.896 170.22 119.624 170.464 119.313 170.648C119.002 170.833 118.657 170.954 118.299 171.005C114.117 171.623 109.954 172.295 105.918 173.004C105.762 173.029 105.603 173.035 105.446 173.022ZM240.125 171.023H239.652C235.653 170.333 231.489 169.697 227.29 169.207C226.931 169.161 226.586 169.046 226.272 168.867C225.959 168.688 225.684 168.449 225.462 168.164C225.241 167.879 225.079 167.553 224.983 167.205C224.888 166.857 224.863 166.494 224.908 166.136C224.953 165.778 225.069 165.433 225.248 165.119C225.427 164.806 225.666 164.531 225.951 164.31C226.236 164.089 226.562 163.926 226.911 163.831C227.259 163.736 227.622 163.711 227.98 163.756C232.271 164.301 236.507 164.937 240.579 165.573C240.938 165.603 241.286 165.703 241.606 165.867C241.925 166.032 242.209 166.257 242.441 166.532C242.673 166.806 242.849 167.123 242.959 167.465C243.068 167.807 243.109 168.167 243.079 168.525C243.049 168.883 242.949 169.232 242.785 169.551C242.62 169.87 242.394 170.154 242.12 170.386C241.845 170.618 241.528 170.793 241.186 170.903C240.843 171.012 240.483 171.053 240.125 171.023ZM135.77 168.789C135.047 168.825 134.339 168.572 133.802 168.087C133.265 167.601 132.943 166.922 132.907 166.2C132.871 165.477 133.123 164.769 133.609 164.233C134.095 163.696 134.774 163.374 135.497 163.338C139.679 162.902 143.951 162.52 148.224 162.212C148.582 162.184 148.942 162.227 149.283 162.339C149.625 162.451 149.941 162.628 150.213 162.862C150.486 163.096 150.71 163.381 150.872 163.701C151.035 164.021 151.132 164.37 151.16 164.728C151.187 165.086 151.144 165.446 151.032 165.787C150.921 166.128 150.743 166.444 150.509 166.716C150.275 166.989 149.99 167.212 149.669 167.375C149.349 167.537 149 167.635 148.642 167.662C144.497 167.971 140.279 168.353 136.134 168.771L135.77 168.789ZM209.637 167.39H209.437C205.364 167.099 201.146 166.881 196.929 166.717C196.205 166.691 195.522 166.378 195.03 165.849C194.537 165.319 194.275 164.615 194.302 163.892C194.328 163.169 194.641 162.487 195.171 161.994C195.701 161.502 196.405 161.24 197.129 161.267C201.419 161.43 205.691 161.666 209.855 161.957C210.578 161.984 211.261 162.296 211.754 162.826C212.246 163.356 212.508 164.06 212.482 164.782C212.455 165.505 212.143 166.188 211.612 166.68C211.082 167.173 210.378 167.434 209.655 167.408L209.637 167.39ZM166.349 166.681C165.626 166.681 164.932 166.394 164.421 165.883C163.91 165.372 163.622 164.679 163.622 163.956C163.622 163.233 163.91 162.54 164.421 162.029C164.932 161.518 165.626 161.23 166.349 161.23C170.604 161.085 174.876 160.994 179.076 160.976C179.796 160.976 180.487 161.261 180.997 161.768C181.508 162.275 181.798 162.964 181.803 163.683C181.798 164.403 181.512 165.093 181.006 165.605C180.5 166.118 179.814 166.413 179.094 166.427C174.949 166.427 170.731 166.536 166.531 166.681H166.349Z" fill="#EC671B"/>
<path d="M321.045 265.41C320.723 265.409 320.404 265.354 320.1 265.247C319.763 265.123 319.453 264.934 319.19 264.691C318.926 264.448 318.712 264.155 318.562 263.829C318.412 263.503 318.327 263.151 318.314 262.793C318.3 262.434 318.357 262.076 318.482 261.74C319.209 259.778 319.863 257.816 320.445 255.872C320.653 255.178 321.127 254.595 321.765 254.25C322.402 253.906 323.151 253.829 323.845 254.037C324.539 254.244 325.123 254.718 325.467 255.355C325.812 255.992 325.888 256.74 325.681 257.434C325.063 259.487 324.354 261.577 323.609 263.63C323.411 264.15 323.06 264.599 322.603 264.916C322.145 265.234 321.602 265.406 321.045 265.41V265.41Z" fill="#EC671B"/>
<path d="M318.155 285.451C317.843 285.514 317.521 285.514 317.209 285.451C316.858 285.377 316.526 285.235 316.23 285.032C315.935 284.83 315.683 284.571 315.488 284.27C315.294 283.969 315.161 283.633 315.097 283.28C315.034 282.928 315.041 282.566 315.118 282.216C315.573 280.182 315.955 278.129 316.264 276.112C316.375 275.389 316.768 274.74 317.358 274.307C317.948 273.874 318.686 273.693 319.409 273.804C320.132 273.915 320.782 274.309 321.215 274.898C321.648 275.488 321.829 276.225 321.718 276.948C321.391 279.073 320.991 281.235 320.518 283.379C320.389 283.927 320.091 284.421 319.668 284.793C319.244 285.164 318.715 285.394 318.155 285.451V285.451Z" fill="#EC671B"/>
<path d="M355.315 337.94H354.77C354.046 337.94 353.353 337.653 352.841 337.142C352.33 336.631 352.043 335.938 352.043 335.215C352.043 334.492 352.33 333.799 352.841 333.288C353.353 332.777 354.046 332.49 354.77 332.49H355.279C359.138 332.437 362.977 331.925 366.714 330.964C367.418 330.792 368.161 330.908 368.78 331.284C369.399 331.661 369.843 332.268 370.014 332.971C370.185 333.675 370.069 334.417 369.693 335.036C369.316 335.654 368.709 336.098 368.005 336.269C363.855 337.322 359.596 337.883 355.315 337.94V337.94ZM338.153 331.908C337.479 331.908 336.831 331.655 336.335 331.2C332.753 327.982 330.14 323.829 328.79 319.208C328.647 318.518 328.778 317.8 329.153 317.204C329.529 316.608 330.121 316.18 330.806 316.011C331.49 315.842 332.213 315.944 332.824 316.296C333.434 316.649 333.885 317.223 334.08 317.9V317.9C335.187 321.461 337.227 324.66 339.989 327.166C340.523 327.653 340.843 328.33 340.881 329.051C340.918 329.772 340.67 330.479 340.189 331.018C339.928 331.297 339.613 331.521 339.263 331.674C338.913 331.827 338.535 331.907 338.153 331.908ZM321.427 310.923C320.77 310.752 320.204 310.336 319.845 309.761C317.256 305.701 315.846 301.002 315.773 296.188C315.795 295.466 316.103 294.781 316.63 294.285C317.156 293.789 317.859 293.523 318.582 293.545C319.305 293.566 319.99 293.874 320.486 294.401C320.982 294.927 321.249 295.629 321.227 296.352V296.352C321.34 300.072 322.451 303.692 324.445 306.835C324.654 307.14 324.799 307.483 324.87 307.846C324.941 308.208 324.937 308.581 324.859 308.942C324.781 309.302 324.629 309.643 324.414 309.944C324.199 310.244 323.925 310.497 323.609 310.687C323.271 310.892 322.892 311.019 322.499 311.06C322.106 311.101 321.709 311.054 321.336 310.923H321.427ZM384.64 330.309C384.014 330.313 383.405 330.102 382.917 329.71C382.428 329.319 382.09 328.771 381.957 328.16C381.825 327.548 381.908 326.91 382.191 326.352C382.474 325.793 382.941 325.35 383.513 325.095C387.246 323.39 390.844 321.404 394.275 319.154C394.575 318.944 394.913 318.796 395.271 318.719C395.629 318.642 395.998 318.638 396.358 318.707C396.717 318.776 397.059 318.917 397.363 319.12C397.666 319.324 397.926 319.587 398.126 319.893C398.326 320.199 398.463 320.542 398.527 320.902C398.592 321.262 398.584 321.631 398.502 321.988C398.421 322.344 398.269 322.681 398.055 322.978C397.841 323.274 397.57 323.525 397.257 323.714C393.595 326.129 389.747 328.249 385.749 330.055C385.373 330.23 384.963 330.317 384.549 330.309H384.64ZM410.092 313.013C409.543 313.009 409.008 312.841 408.556 312.528C408.105 312.216 407.758 311.775 407.562 311.263C407.365 310.75 407.328 310.19 407.455 309.657C407.582 309.123 407.868 308.64 408.274 308.271C411.292 305.527 414.274 302.566 417.128 299.477C417.352 299.165 417.639 298.904 417.971 298.71C418.303 298.517 418.672 298.396 419.054 298.355C419.436 298.314 419.822 298.354 420.188 298.473C420.553 298.592 420.889 298.786 421.174 299.044C421.459 299.301 421.686 299.616 421.841 299.968C421.996 300.319 422.074 300.7 422.071 301.084C422.069 301.468 421.985 301.847 421.825 302.196C421.666 302.545 421.434 302.857 421.146 303.111C418.182 306.327 415.092 309.397 411.946 312.195C411.437 312.711 410.745 313.005 410.019 313.013H410.092ZM430.581 289.956C430.01 289.96 429.454 289.775 429 289.43C428.708 289.222 428.461 288.959 428.272 288.655C428.083 288.351 427.956 288.013 427.898 287.66C427.841 287.307 427.854 286.946 427.937 286.598C428.02 286.25 428.171 285.922 428.381 285.632C430.818 282.253 433.126 278.746 435.272 275.203C435.647 274.595 436.246 274.158 436.941 273.988C437.635 273.817 438.369 273.925 438.984 274.29C439.599 274.654 440.046 275.246 440.229 275.936C440.412 276.627 440.316 277.362 439.962 277.983C437.744 281.617 435.345 285.251 432.817 288.775C432.562 289.15 432.217 289.454 431.814 289.66C431.41 289.866 430.962 289.968 430.509 289.956H430.581ZM446.053 263.248C445.597 263.253 445.147 263.142 444.745 262.927C444.343 262.711 444.002 262.398 443.753 262.015C443.505 261.633 443.357 261.194 443.324 260.74C443.29 260.285 443.372 259.829 443.562 259.415C445.289 255.599 446.853 251.693 448.18 247.841C448.421 247.157 448.924 246.596 449.579 246.283C450.233 245.969 450.986 245.929 451.67 246.17C452.355 246.41 452.916 246.913 453.23 247.568C453.543 248.222 453.584 248.974 453.343 249.658C451.943 253.673 450.325 257.725 448.543 261.686C448.318 262.17 447.954 262.576 447.498 262.854C447.042 263.132 446.514 263.269 445.98 263.248H446.053ZM455.561 233.96C455.386 233.979 455.209 233.979 455.034 233.96C454.324 233.815 453.7 233.396 453.298 232.794C452.896 232.191 452.749 231.455 452.888 230.744C453.707 226.656 454.325 222.514 454.706 218.444C454.741 218.086 454.846 217.738 455.015 217.421C455.184 217.104 455.414 216.823 455.692 216.594C455.969 216.365 456.289 216.194 456.633 216.089C456.978 215.984 457.339 215.947 457.697 215.982C458.055 216.017 458.403 216.121 458.721 216.29C459.038 216.459 459.319 216.689 459.548 216.966C459.777 217.244 459.949 217.564 460.054 217.908C460.159 218.252 460.195 218.613 460.161 218.971C459.755 223.284 459.117 227.572 458.252 231.816C458.112 232.439 457.76 232.994 457.256 233.385C456.752 233.776 456.126 233.98 455.488 233.96H455.561ZM457.779 203.237C457.083 203.238 456.413 202.973 455.906 202.497C455.399 202.021 455.094 201.369 455.052 200.675C454.888 197.695 454.579 194.697 454.161 191.754C453.997 190.609 453.816 189.483 453.634 188.338C453.513 187.615 453.685 186.874 454.111 186.278C454.537 185.682 455.183 185.279 455.906 185.159C456.63 185.038 457.371 185.21 457.968 185.636C458.564 186.061 458.967 186.707 459.088 187.43C459.288 188.611 459.488 189.81 459.651 191.063C460.088 194.152 460.415 197.295 460.597 200.42C460.619 200.778 460.57 201.137 460.453 201.476C460.336 201.816 460.154 202.128 459.915 202.397C459.677 202.665 459.388 202.884 459.065 203.04C458.743 203.197 458.392 203.288 458.033 203.309L457.779 203.237ZM452.052 172.949C451.483 172.955 450.927 172.783 450.461 172.457C449.995 172.131 449.642 171.668 449.452 171.132C448.216 167.208 446.78 163.247 445.198 159.395C445.038 159.061 444.948 158.697 444.934 158.327C444.919 157.957 444.981 157.587 445.114 157.241C445.247 156.896 445.449 156.581 445.708 156.315C445.967 156.05 446.278 155.841 446.621 155.7C446.964 155.559 447.332 155.489 447.703 155.495C448.073 155.501 448.439 155.583 448.777 155.735C449.115 155.887 449.419 156.106 449.67 156.379C449.92 156.652 450.112 156.974 450.234 157.324C451.889 161.321 453.379 165.409 454.652 169.497C454.761 169.84 454.8 170.202 454.768 170.561C454.735 170.92 454.631 171.269 454.461 171.587C454.292 171.905 454.061 172.186 453.781 172.414C453.502 172.641 453.18 172.811 452.834 172.913C452.553 172.973 452.264 172.985 451.979 172.949H452.052ZM439.726 144.678C439.242 144.678 438.768 144.55 438.349 144.308C437.931 144.065 437.584 143.717 437.344 143.298C435.29 139.664 433.054 136.139 430.709 132.741C430.296 132.146 430.137 131.412 430.267 130.7C430.397 129.988 430.804 129.356 431.399 128.944C431.995 128.532 432.73 128.373 433.442 128.503C434.155 128.632 434.787 129.039 435.199 129.635C437.635 133.268 439.962 136.902 442.089 140.536C442.33 140.949 442.457 141.418 442.458 141.896C442.458 142.374 442.332 142.844 442.092 143.257C441.852 143.671 441.506 144.013 441.091 144.25C440.675 144.487 440.204 144.61 439.726 144.606V144.678ZM421.691 119.66C421.308 119.663 420.929 119.585 420.578 119.431C420.227 119.278 419.913 119.053 419.655 118.77C416.855 115.663 413.892 112.683 410.874 109.939C410.41 109.441 410.151 108.786 410.146 108.106C410.141 107.425 410.391 106.767 410.847 106.261C411.302 105.756 411.931 105.439 412.609 105.373C413.287 105.307 413.965 105.497 414.51 105.906C417.655 108.777 420.746 111.865 423.6 115.118C423.842 115.382 424.03 115.693 424.151 116.031C424.272 116.368 424.325 116.727 424.307 117.085C424.288 117.444 424.198 117.795 424.043 118.118C423.887 118.442 423.669 118.731 423.4 118.969C422.913 119.413 422.277 119.659 421.618 119.66H421.691ZM398.275 99.5469C397.747 99.543 397.231 99.392 396.784 99.1109C393.339 96.8616 389.743 94.8523 386.021 93.097C385.366 92.791 384.858 92.2372 384.611 91.5574C384.364 90.8777 384.397 90.1276 384.703 89.4723C385.01 88.8169 385.564 88.31 386.244 88.063C386.924 87.8159 387.675 87.8491 388.33 88.155C392.28 90.0028 396.101 92.1152 399.766 94.4778C400.261 94.7975 400.639 95.2691 400.844 95.8217C401.048 96.3744 401.068 96.9784 400.9 97.5433C400.732 98.1081 400.386 98.6034 399.912 98.9548C399.439 99.3062 398.865 99.4948 398.275 99.4924V99.5469ZM369.986 87.501C369.763 87.5268 369.537 87.5268 369.314 87.501C365.441 86.5199 361.314 85.5569 357.024 84.6666C356.315 84.5197 355.694 84.0973 355.297 83.4925C354.899 82.8877 354.759 82.15 354.906 81.4417C355.053 80.7333 355.476 80.1124 356.081 79.7154C356.686 79.3185 357.424 79.178 358.133 79.325C362.496 80.2516 366.714 81.1419 370.659 82.2138C371.297 82.3826 371.853 82.7771 372.222 83.3239C372.591 83.8708 372.749 84.533 372.667 85.1876C372.585 85.8422 372.268 86.4448 371.775 86.8836C371.282 87.3224 370.647 87.5676 369.986 87.5736V87.501ZM339.698 81.3417H339.244C333.79 80.4515 329.463 79.8519 326.736 79.5248C326.378 79.4783 326.032 79.3618 325.719 79.1818C325.406 79.0019 325.131 78.7621 324.911 78.4761C324.691 78.1901 324.529 77.8636 324.435 77.5151C324.341 77.1667 324.317 76.8031 324.363 76.4452C324.41 76.0873 324.526 75.7421 324.706 75.4293C324.886 75.1164 325.126 74.8421 325.412 74.6219C325.699 74.4017 326.025 74.24 326.374 74.1461C326.723 74.0521 327.087 74.0277 327.445 74.0742C330.208 74.4376 334.717 75.0553 340.171 75.8911C340.894 75.9489 341.565 76.2915 342.035 76.8435C342.506 77.3955 342.738 78.1116 342.68 78.8344C342.622 79.5572 342.279 80.2275 341.727 80.6977C341.174 81.1679 340.458 81.3996 339.735 81.3417H339.698ZM308.992 77.708H308.755C303.865 77.2901 299.811 76.9267 296.029 76.3635C295.306 76.2599 294.653 75.8734 294.215 75.289C293.777 74.7047 293.589 73.9703 293.693 73.2475C293.797 72.5247 294.183 71.8727 294.768 71.4348C295.353 70.997 296.088 70.8092 296.811 70.9128C300.447 71.4579 304.501 71.8213 309.301 72.221C310.024 72.2523 310.705 72.5695 311.194 73.1027C311.684 73.636 311.941 74.3416 311.91 75.0644C311.878 75.7872 311.561 76.4679 311.027 76.9569C310.494 77.4458 309.788 77.7029 309.064 77.6716L308.992 77.708ZM279.012 71.2035C278.597 71.2021 278.188 71.1091 277.813 70.931C276.594 70.3132 275.34 69.641 274.176 68.9142C271.566 67.3932 269.053 65.7124 266.65 63.8815C266.35 63.6711 266.095 63.4025 265.902 63.0916C265.708 62.7808 265.579 62.4341 265.522 62.0724C265.466 61.7106 265.482 61.3411 265.572 60.9859C265.661 60.6308 265.821 60.2973 266.043 60.0054C266.264 59.7134 266.542 59.469 266.859 59.2868C267.177 59.1046 267.529 58.9882 267.892 58.9447C268.256 58.9012 268.625 58.9314 268.977 59.0335C269.329 59.1356 269.657 59.3076 269.94 59.5391C272.176 61.2342 274.507 62.7993 276.922 64.2267C278.049 64.8808 279.176 65.4985 280.285 66.0436C280.833 66.3189 281.272 66.7707 281.531 67.326C281.79 67.8812 281.855 68.5076 281.714 69.104C281.573 69.7003 281.235 70.2319 280.755 70.6128C280.275 70.9938 279.68 71.2018 279.067 71.2035H279.012ZM255.905 51.2178C255.422 51.2176 254.947 51.0898 254.529 50.8473C254.111 50.6049 253.764 50.2563 253.524 49.837C251.546 46.5057 250.468 42.7178 250.397 38.8448C250.397 38.3542 250.397 37.8455 250.397 37.355C250.429 36.8553 250.49 36.3579 250.579 35.8651C250.636 35.5072 250.763 35.1641 250.953 34.8554C251.143 34.5466 251.392 34.2783 251.686 34.0657C251.98 33.8531 252.312 33.7005 252.665 33.6164C253.018 33.5324 253.384 33.5186 253.742 33.5758C254.1 33.6331 254.443 33.7603 254.752 33.9502C255.061 34.14 255.33 34.3888 255.542 34.6824C255.755 34.976 255.908 35.3085 255.992 35.6611C256.076 36.0136 256.09 36.3793 256.033 36.7372C256.033 37.0824 256.033 37.4276 255.905 37.7728C255.887 38.1299 255.887 38.4877 255.905 38.8448C255.983 41.7744 256.816 44.6344 258.323 47.148C258.656 47.7679 258.735 48.4922 258.545 49.1694C258.356 49.8466 257.911 50.4243 257.305 50.7817C256.884 51.0424 256.401 51.1866 255.905 51.1996V51.2178ZM447.089 34.2299C446.842 34.2645 446.591 34.2645 446.344 34.2299L443.071 33.3033C442.726 33.2067 442.404 33.0431 442.122 32.8219C441.84 32.6006 441.605 32.3261 441.429 32.014C441.254 31.7019 441.141 31.3583 441.099 31.0028C441.056 30.6473 441.084 30.2868 441.18 29.9421C441.277 29.5973 441.441 29.2749 441.662 28.9934C441.883 28.7118 442.158 28.4766 442.47 28.3011C442.783 28.1257 443.127 28.0134 443.482 27.9708C443.838 27.9281 444.199 27.9559 444.544 28.0525L447.834 28.9791C448.463 29.1623 449.005 29.5655 449.361 30.1151C449.716 30.6646 449.862 31.3237 449.772 31.9719C449.681 32.6201 449.361 33.2142 448.868 33.6455C448.375 34.0767 447.744 34.3164 447.089 34.3208V34.2299ZM426.218 28.5976C425.995 28.6234 425.769 28.6234 425.545 28.5976C421.764 27.6165 417.619 26.599 413.219 25.5452C412.515 25.3765 411.907 24.9353 411.529 24.3186C411.15 23.7019 411.032 22.9602 411.201 22.2566C411.37 21.5531 411.811 20.9454 412.428 20.5672C413.046 20.189 413.788 20.0712 414.492 20.2399C418.928 21.2937 423.091 22.3293 426.891 23.3104C427.614 23.3996 428.272 23.7722 428.72 24.3463C429.169 24.9205 429.371 25.6491 429.281 26.3719C429.192 27.0947 428.819 27.7525 428.245 28.2005C427.67 28.6486 426.941 28.8502 426.218 28.7611V28.5976ZM263.341 24.3461C262.776 24.3466 262.225 24.1717 261.764 23.8456C261.302 23.5195 260.954 23.0583 260.766 22.5258C260.579 21.9932 260.561 21.4155 260.716 20.8726C260.871 20.3297 261.191 19.8483 261.632 19.495C263.887 17.7384 266.248 16.1243 268.704 14.6621C270.062 13.8185 271.47 13.06 272.922 12.391C273.248 12.2193 273.605 12.1153 273.972 12.0853C274.339 12.0552 274.708 12.0998 275.058 12.2163C275.407 12.3328 275.729 12.5188 276.004 12.7631C276.28 13.0073 276.503 13.3048 276.66 13.6376C276.817 13.9703 276.906 14.3315 276.919 14.6992C276.933 15.067 276.872 15.4337 276.741 15.7773C276.609 16.121 276.409 16.4343 276.152 16.6985C275.896 16.9628 275.589 17.1724 275.249 17.3147C274.003 17.9094 272.789 18.5705 271.613 19.2951C269.341 20.6481 267.155 22.1409 265.068 23.7647C264.574 24.1442 263.964 24.3429 263.341 24.3279V24.3461ZM396.057 21.5299C395.863 21.5465 395.669 21.5465 395.475 21.5299C391.312 20.6396 387.13 19.713 383.058 19.0044C382.347 18.8671 381.719 18.453 381.314 17.8533C380.908 17.2537 380.757 16.5175 380.895 15.8067C381.032 15.0959 381.446 14.4689 382.046 14.0634C382.646 13.6579 383.383 13.5073 384.094 13.6446C388.203 14.444 392.421 15.298 396.621 16.2064C396.979 16.2434 397.326 16.3505 397.643 16.5216C397.959 16.6928 398.239 16.9246 398.466 17.2038C398.693 17.483 398.863 17.8042 398.966 18.149C399.069 18.4938 399.103 18.8555 399.066 19.2134C399.029 19.5713 398.922 19.9184 398.75 20.2349C398.579 20.5514 398.347 20.8311 398.068 21.058C397.788 21.2849 397.467 21.4546 397.122 21.5574C396.777 21.6602 396.415 21.6941 396.057 21.6571V21.5299ZM365.714 15.7704H365.278C361.005 15.0799 356.788 14.4622 352.752 13.9535C352.393 13.9058 352.048 13.788 351.736 13.607C351.423 13.4259 351.149 13.1851 350.93 12.8983C350.487 12.3191 350.292 11.5876 350.388 10.8648C350.485 10.142 350.864 9.48706 351.444 9.04411C352.024 8.60115 352.756 8.40645 353.479 8.50282C357.569 9.04789 361.824 9.66563 366.205 10.3197C366.928 10.3775 367.599 10.7201 368.069 11.2721C368.54 11.8241 368.772 12.5403 368.714 13.2631C368.656 13.9859 368.313 14.6561 367.761 15.1263C367.209 15.5965 366.492 15.8282 365.769 15.7704H365.714ZM291.484 12.5545C290.797 12.5479 290.137 12.2839 289.635 11.8148C289.133 11.3457 288.826 10.7056 288.773 10.0208C288.721 9.33607 288.927 8.65653 289.352 8.11645C289.776 7.57637 290.388 7.21503 291.066 7.10382C295.349 6.43327 299.663 5.98451 303.992 5.75933C304.711 5.72444 305.416 5.97344 305.953 6.45266C306.49 6.93188 306.818 7.60293 306.865 8.32113C306.887 8.67823 306.838 9.03617 306.721 9.37425C306.603 9.71233 306.42 10.0238 306.182 10.2908C305.944 10.5577 305.655 10.7748 305.332 10.9295C305.009 11.0841 304.659 11.1733 304.301 11.1918C300.16 11.4124 296.034 11.849 291.939 12.5L291.484 12.5545ZM335.117 11.9186H334.88C330.517 11.537 326.281 11.2827 322.3 11.1373C321.941 11.1233 321.59 11.0388 321.264 10.8887C320.938 10.7386 320.646 10.5259 320.403 10.2626C320.159 9.99935 319.971 9.69077 319.847 9.35452C319.723 9.01826 319.667 8.66093 319.682 8.30297C319.719 7.58649 320.034 6.91276 320.56 6.42444C321.086 5.93611 321.782 5.6715 322.5 5.68665C326.572 5.832 330.899 6.10453 335.335 6.48608C336.058 6.51499 336.74 6.82985 337.231 7.36139C337.722 7.89294 337.982 8.59762 337.953 9.32042C337.924 10.0432 337.609 10.7249 337.077 11.2156C336.545 11.7062 335.84 11.9656 335.117 11.9367V11.9186Z" fill="#EC671B"/>
<path d="M523.646 48.0385L450.725 49.8554L457.906 22.7656L523.646 48.0385Z" fill="#7D3811"/>
<path d="M457.906 22.7656V64.3904L541.535 43.5871L457.906 22.7656Z" fill="#EC671B"/>
<path d="M541.535 43.587L462.851 13.6084V24.001L541.535 43.587Z" fill="#7D3811"/>
<path d="M462.851 13.6085L450.725 0L541.535 43.5871L462.851 13.6085Z" fill="#EC671B"/>
<path d="M155.32 269.408C172.024 269.408 180.376 276.032 180.376 289.28C180.376 302.912 172.024 309.728 155.32 309.728H148.984V319.52C148.984 328.16 146.584 334.688 141.784 339.104C136.984 343.52 130.744 345.728 123.064 345.728C115.384 345.728 109.144 343.52 104.344 339.104C99.736 334.688 97.432 328.16 97.432 319.52V309.728H33.208C26.296 309.728 20.824 307.616 16.792 303.392C12.76 299.168 10.744 293.888 10.744 287.552C10.744 280.832 12.856 274.496 17.08 268.544L99.448 151.04C102.136 147.2 105.496 144.32 109.528 142.4C113.752 140.288 118.072 139.232 122.488 139.232C129.784 139.232 136.024 141.536 141.208 146.144C146.392 150.752 148.984 157.184 148.984 165.44V269.408H155.32ZM62.872 269.408H97.432V219.584L62.872 269.408ZM266.088 346.592C240.936 346.592 221.736 337.664 208.488 319.808C195.24 301.952 188.616 276.128 188.616 242.336C188.616 208.736 195.24 183.008 208.488 165.152C221.736 147.296 240.936 138.368 266.088 138.368C291.048 138.368 310.152 147.296 323.4 165.152C336.84 183.008 343.56 208.736 343.56 242.336C343.56 276.128 336.936 301.952 323.688 319.808C310.44 337.664 291.24 346.592 266.088 346.592ZM266.088 306.56C275.304 306.56 281.928 301.568 285.96 291.584C289.992 281.6 292.008 265.184 292.008 242.336C292.008 219.68 289.992 203.36 285.96 193.376C281.928 183.392 275.304 178.4 266.088 178.4C256.872 178.4 250.248 183.392 246.216 193.376C242.184 203.168 240.168 219.488 240.168 242.336C240.168 265.184 242.184 281.6 246.216 291.584C250.248 301.568 256.872 306.56 266.088 306.56ZM500.695 269.408C517.399 269.408 525.751 276.032 525.751 289.28C525.751 302.912 517.399 309.728 500.695 309.728H494.359V319.52C494.359 328.16 491.959 334.688 487.159 339.104C482.359 343.52 476.119 345.728 468.439 345.728C460.759 345.728 454.519 343.52 449.719 339.104C445.111 334.688 442.807 328.16 442.807 319.52V309.728H378.583C371.671 309.728 366.199 307.616 362.167 303.392C358.135 299.168 356.119 293.888 356.119 287.552C356.119 280.832 358.231 274.496 362.455 268.544L444.823 151.04C447.511 147.2 450.871 144.32 454.903 142.4C459.127 140.288 463.447 139.232 467.863 139.232C475.159 139.232 481.399 141.536 486.583 146.144C491.767 150.752 494.359 157.184 494.359 165.44V269.408H500.695ZM408.247 269.408H442.807V219.584L408.247 269.408Z" fill="black"/>
<path d="M30.144 429.24C29.536 429.24 29.056 429.064 28.704 428.712C28.352 428.328 28.176 427.832 28.176 427.224V397.08C28.176 396.504 28.352 396.04 28.704 395.688C29.088 395.336 29.584 395.16 30.192 395.16H41.568C45.12 395.16 47.872 396.024 49.824 397.752C51.808 399.48 52.8 401.928 52.8 405.096C52.8 408.264 51.808 410.728 49.824 412.488C47.84 414.248 45.088 415.128 41.568 415.128H32.112V427.224C32.112 427.832 31.936 428.328 31.584 428.712C31.232 429.064 30.752 429.24 30.144 429.24ZM41.184 411.864C46.336 411.864 48.912 409.608 48.912 405.096C48.912 400.648 46.336 398.424 41.184 398.424H32.112V411.864H41.184ZM67.5739 405.048C73.4299 405.048 76.3579 408.12 76.3579 414.264V427.32C76.3579 427.896 76.1819 428.36 75.8299 428.712C75.5099 429.064 75.0619 429.24 74.4859 429.24C73.9099 429.24 73.4459 429.064 73.0939 428.712C72.7419 428.36 72.5659 427.896 72.5659 427.32V425.016C71.9579 426.392 71.0299 427.464 69.7819 428.232C68.5339 428.968 67.0939 429.336 65.4619 429.336C63.9579 429.336 62.5659 429.032 61.2859 428.424C60.0379 427.816 59.0459 426.968 58.3099 425.88C57.5739 424.792 57.2059 423.592 57.2059 422.28C57.2059 420.52 57.6539 419.16 58.5499 418.2C59.4459 417.208 60.9179 416.504 62.9659 416.088C65.0139 415.64 67.8619 415.416 71.5099 415.416H72.5659V413.832C72.5659 411.912 72.1659 410.504 71.3659 409.608C70.5979 408.712 69.3339 408.264 67.5739 408.264C65.3979 408.264 63.1899 408.856 60.9499 410.04C60.0859 410.584 59.4779 410.856 59.1259 410.856C58.7419 410.856 58.4219 410.712 58.1659 410.424C57.9099 410.136 57.7819 409.768 57.7819 409.32C57.7819 408.872 57.9099 408.488 58.1659 408.168C58.4539 407.816 58.9019 407.464 59.5099 407.112C60.6299 406.472 61.8939 405.976 63.3019 405.624C64.7419 405.24 66.1659 405.048 67.5739 405.048ZM65.9899 426.264C67.9099 426.264 69.4779 425.624 70.6939 424.344C71.9419 423.032 72.5659 421.352 72.5659 419.304V417.912H71.7019C68.8859 417.912 66.7419 418.04 65.2699 418.296C63.7979 418.52 62.7419 418.92 62.1019 419.496C61.4939 420.04 61.1899 420.856 61.1899 421.944C61.1899 423.192 61.6379 424.232 62.5339 425.064C63.4619 425.864 64.6139 426.264 65.9899 426.264ZM68.4379 402.504C68.1819 402.696 67.9259 402.792 67.6699 402.792C67.3499 402.792 67.0779 402.696 66.8539 402.504C66.6299 402.28 66.5179 402.024 66.5179 401.736C66.5179 401.48 66.6139 401.24 66.8059 401.016L72.3739 393.72C72.9499 392.984 73.6059 392.616 74.3419 392.616C74.8539 392.616 75.2859 392.792 75.6379 393.144C75.9899 393.464 76.1659 393.88 76.1659 394.392C76.1659 395.064 75.8459 395.672 75.2059 396.216L68.4379 402.504ZM102.435 405.144C103.043 405.144 103.523 405.32 103.875 405.672C104.227 406.024 104.403 406.488 104.403 407.064V427.416C104.403 430.904 103.507 433.528 101.715 435.288C99.923 437.08 97.267 437.976 93.747 437.976C90.323 437.976 87.475 437.304 85.203 435.96C84.051 435.32 83.475 434.584 83.475 433.752C83.475 433.304 83.587 432.936 83.811 432.648C84.067 432.36 84.387 432.216 84.771 432.216C85.091 432.216 85.667 432.44 86.499 432.888C87.619 433.464 88.723 433.928 89.811 434.28C90.899 434.632 92.195 434.808 93.699 434.808C95.971 434.808 97.683 434.2 98.835 432.984C99.987 431.8 100.563 430.056 100.563 427.752V423.624C99.891 425.128 98.851 426.28 97.443 427.08C96.067 427.88 94.435 428.28 92.547 428.28C90.499 428.28 88.675 427.8 87.075 426.84C85.507 425.88 84.275 424.52 83.379 422.76C82.515 421 82.083 418.968 82.083 416.664C82.083 414.36 82.515 412.328 83.379 410.568C84.275 408.808 85.507 407.448 87.075 406.488C88.675 405.528 90.499 405.048 92.547 405.048C94.403 405.048 96.019 405.448 97.395 406.248C98.771 407.048 99.811 408.184 100.515 409.656V407.064C100.515 406.488 100.675 406.024 100.995 405.672C101.347 405.32 101.827 405.144 102.435 405.144ZM93.315 425.064C95.555 425.064 97.315 424.328 98.595 422.856C99.875 421.352 100.515 419.288 100.515 416.664C100.515 414.072 99.875 412.04 98.595 410.568C97.347 409.064 95.587 408.312 93.315 408.312C91.043 408.312 89.251 409.064 87.939 410.568C86.659 412.04 86.019 414.072 86.019 416.664C86.019 419.288 86.659 421.352 87.939 422.856C89.251 424.328 91.043 425.064 93.315 425.064ZM113.568 429.24C112.992 429.24 112.512 429.08 112.128 428.76C111.776 428.408 111.6 427.928 111.6 427.32V407.064C111.6 406.456 111.776 405.992 112.128 405.672C112.512 405.32 112.992 405.144 113.568 405.144C114.144 405.144 114.608 405.32 114.96 405.672C115.312 405.992 115.488 406.456 115.488 407.064V427.32C115.488 427.96 115.312 428.44 114.96 428.76C114.608 429.08 114.144 429.24 113.568 429.24ZM113.568 400.104C112.8 400.104 112.176 399.88 111.696 399.432C111.216 398.984 110.976 398.392 110.976 397.656C110.976 396.952 111.216 396.376 111.696 395.928C112.176 395.48 112.8 395.256 113.568 395.256C114.336 395.256 114.96 395.48 115.44 395.928C115.92 396.376 116.16 396.952 116.16 397.656C116.16 398.392 115.92 398.984 115.44 399.432C114.96 399.88 114.336 400.104 113.568 400.104ZM134.516 405.048C140.116 405.048 142.916 408.136 142.916 414.312V427.32C142.916 427.928 142.74 428.408 142.388 428.76C142.068 429.08 141.604 429.24 140.996 429.24C140.388 429.24 139.908 429.08 139.556 428.76C139.204 428.408 139.028 427.928 139.028 427.32V414.552C139.028 412.376 138.596 410.792 137.732 409.8C136.9 408.808 135.556 408.312 133.7 408.312C131.556 408.312 129.844 408.968 128.564 410.28C127.284 411.592 126.644 413.368 126.644 415.608V427.32C126.644 427.928 126.468 428.408 126.116 428.76C125.796 429.08 125.332 429.24 124.724 429.24C124.116 429.24 123.636 429.08 123.284 428.76C122.932 428.408 122.756 427.928 122.756 427.32V407.064C122.756 406.488 122.932 406.024 123.284 405.672C123.636 405.32 124.116 405.144 124.724 405.144C125.3 405.144 125.748 405.32 126.068 405.672C126.42 406.024 126.596 406.472 126.596 407.016V409.464C127.364 408.024 128.436 406.936 129.812 406.2C131.188 405.432 132.756 405.048 134.516 405.048ZM159.59 405.048C165.446 405.048 168.374 408.12 168.374 414.264V427.32C168.374 427.896 168.198 428.36 167.846 428.712C167.526 429.064 167.078 429.24 166.502 429.24C165.926 429.24 165.462 429.064 165.11 428.712C164.758 428.36 164.582 427.896 164.582 427.32V425.016C163.974 426.392 163.046 427.464 161.798 428.232C160.55 428.968 159.11 429.336 157.478 429.336C155.974 429.336 154.582 429.032 153.302 428.424C152.054 427.816 151.062 426.968 150.326 425.88C149.59 424.792 149.222 423.592 149.222 422.28C149.222 420.52 149.67 419.16 150.566 418.2C151.462 417.208 152.934 416.504 154.982 416.088C157.03 415.64 159.878 415.416 163.526 415.416H164.582V413.832C164.582 411.912 164.182 410.504 163.382 409.608C162.614 408.712 161.35 408.264 159.59 408.264C157.414 408.264 155.206 408.856 152.966 410.04C152.102 410.584 151.494 410.856 151.142 410.856C150.758 410.856 150.438 410.712 150.182 410.424C149.926 410.136 149.798 409.768 149.798 409.32C149.798 408.872 149.926 408.488 150.182 408.168C150.47 407.816 150.918 407.464 151.526 407.112C152.646 406.472 153.91 405.976 155.318 405.624C156.758 405.24 158.182 405.048 159.59 405.048ZM158.006 426.264C159.926 426.264 161.494 425.624 162.71 424.344C163.958 423.032 164.582 421.352 164.582 419.304V417.912H163.718C160.902 417.912 158.758 418.04 157.286 418.296C155.814 418.52 154.758 418.92 154.118 419.496C153.51 420.04 153.206 420.856 153.206 421.944C153.206 423.192 153.654 424.232 154.55 425.064C155.478 425.864 156.63 426.264 158.006 426.264ZM199.626 405.048C205.226 405.048 208.026 408.136 208.026 414.312V427.32C208.026 427.928 207.85 428.408 207.498 428.76C207.178 429.08 206.714 429.24 206.106 429.24C205.498 429.24 205.018 429.08 204.666 428.76C204.314 428.408 204.138 427.928 204.138 427.32V414.552C204.138 412.376 203.706 410.792 202.842 409.8C202.01 408.808 200.666 408.312 198.81 408.312C196.666 408.312 194.954 408.968 193.674 410.28C192.394 411.592 191.754 413.368 191.754 415.608V427.32C191.754 427.928 191.578 428.408 191.226 428.76C190.906 429.08 190.442 429.24 189.834 429.24C189.226 429.24 188.746 429.08 188.394 428.76C188.042 428.408 187.866 427.928 187.866 427.32V407.064C187.866 406.488 188.042 406.024 188.394 405.672C188.746 405.32 189.226 405.144 189.834 405.144C190.41 405.144 190.858 405.32 191.178 405.672C191.53 406.024 191.706 406.472 191.706 407.016V409.464C192.474 408.024 193.546 406.936 194.922 406.2C196.298 405.432 197.866 405.048 199.626 405.048ZM224.699 405.048C230.555 405.048 233.483 408.12 233.483 414.264V427.32C233.483 427.896 233.307 428.36 232.955 428.712C232.635 429.064 232.187 429.24 231.611 429.24C231.035 429.24 230.571 429.064 230.219 428.712C229.867 428.36 229.691 427.896 229.691 427.32V425.016C229.083 426.392 228.155 427.464 226.907 428.232C225.659 428.968 224.219 429.336 222.587 429.336C221.083 429.336 219.691 429.032 218.411 428.424C217.163 427.816 216.171 426.968 215.435 425.88C214.699 424.792 214.331 423.592 214.331 422.28C214.331 420.52 214.779 419.16 215.675 418.2C216.571 417.208 218.043 416.504 220.091 416.088C222.139 415.64 224.987 415.416 228.635 415.416H229.691V413.832C229.691 411.912 229.291 410.504 228.491 409.608C227.723 408.712 226.459 408.264 224.699 408.264C222.523 408.264 220.315 408.856 218.075 410.04C217.211 410.584 216.603 410.856 216.251 410.856C215.867 410.856 215.547 410.712 215.291 410.424C215.035 410.136 214.907 409.768 214.907 409.32C214.907 408.872 215.035 408.488 215.291 408.168C215.579 407.816 216.027 407.464 216.635 407.112C217.755 406.472 219.019 405.976 220.427 405.624C221.867 405.24 223.291 405.048 224.699 405.048ZM223.115 426.264C225.035 426.264 226.603 425.624 227.819 424.344C229.067 423.032 229.691 421.352 229.691 419.304V417.912H228.827C226.011 417.912 223.867 418.04 222.395 418.296C220.923 418.52 219.867 418.92 219.227 419.496C218.619 420.04 218.315 420.856 218.315 421.944C218.315 423.192 218.763 424.232 219.659 425.064C220.587 425.864 221.739 426.264 223.115 426.264ZM228.107 400.68C227.499 400.68 226.907 400.536 226.331 400.248C225.755 399.96 225.067 399.544 224.267 399C223.563 398.552 223.003 398.232 222.587 398.04C222.171 397.816 221.787 397.704 221.435 397.704C220.891 397.704 220.459 397.848 220.139 398.136C219.851 398.424 219.563 398.824 219.275 399.336C219.051 399.688 218.859 399.96 218.699 400.152C218.539 400.312 218.347 400.392 218.123 400.392C217.835 400.392 217.595 400.28 217.403 400.056C217.211 399.832 217.115 399.544 217.115 399.192C217.115 398.616 217.291 397.976 217.643 397.272C217.995 396.568 218.491 395.96 219.131 395.448C219.771 394.936 220.491 394.68 221.291 394.68C221.899 394.68 222.491 394.824 223.067 395.112C223.643 395.4 224.331 395.816 225.131 396.36C225.835 396.808 226.395 397.144 226.811 397.368C227.227 397.56 227.611 397.656 227.963 397.656C228.475 397.656 228.875 397.512 229.163 397.224C229.483 396.936 229.803 396.536 230.123 396.024C230.347 395.64 230.539 395.368 230.699 395.208C230.859 395.016 231.051 394.92 231.275 394.92C231.563 394.92 231.803 395.048 231.995 395.304C232.187 395.528 232.283 395.816 232.283 396.168C232.283 396.712 232.107 397.352 231.755 398.088C231.403 398.792 230.907 399.4 230.267 399.912C229.627 400.424 228.907 400.68 228.107 400.68ZM250.296 429.336C248.088 429.336 246.136 428.84 244.44 427.848C242.776 426.856 241.48 425.448 240.552 423.624C239.656 421.768 239.208 419.624 239.208 417.192C239.208 414.76 239.656 412.632 240.552 410.808C241.48 408.952 242.776 407.528 244.44 406.536C246.136 405.544 248.088 405.048 250.296 405.048C252.504 405.048 254.456 405.544 256.152 406.536C257.848 407.528 259.144 408.952 260.04 410.808C260.968 412.632 261.432 414.76 261.432 417.192C261.432 419.624 260.968 421.768 260.04 423.624C259.144 425.448 257.848 426.856 256.152 427.848C254.456 428.84 252.504 429.336 250.296 429.336ZM250.296 426.12C252.6 426.12 254.36 425.368 255.576 423.864C256.824 422.328 257.448 420.104 257.448 417.192C257.448 414.344 256.824 412.152 255.576 410.616C254.328 409.048 252.568 408.264 250.296 408.264C248.024 408.264 246.264 409.048 245.016 410.616C243.768 412.152 243.144 414.344 243.144 417.192C243.144 420.072 243.752 422.28 244.968 423.816C246.216 425.352 247.992 426.12 250.296 426.12ZM297.696 423.576C298.048 423.576 298.352 423.72 298.608 424.008C298.864 424.296 298.992 424.664 298.992 425.112C298.992 425.912 298.432 426.648 297.312 427.32C296.16 427.992 294.944 428.504 293.664 428.856C292.384 429.176 291.136 429.336 289.92 429.336C286.304 429.336 283.44 428.264 281.328 426.12C279.248 423.976 278.208 421.016 278.208 417.24C278.208 414.84 278.672 412.728 279.6 410.904C280.528 409.048 281.824 407.608 283.488 406.584C285.184 405.56 287.104 405.048 289.248 405.048C292.288 405.048 294.704 406.04 296.496 408.024C298.288 410.008 299.184 412.696 299.184 416.088C299.184 416.728 299.056 417.192 298.8 417.48C298.544 417.768 298.128 417.912 297.552 417.912H282.096C282.384 423.416 284.992 426.168 289.92 426.168C291.168 426.168 292.24 426.008 293.136 425.688C294.032 425.336 294.992 424.872 296.016 424.296C296.848 423.816 297.408 423.576 297.696 423.576ZM289.296 408.072C287.248 408.072 285.6 408.712 284.352 409.992C283.136 411.272 282.416 413.08 282.192 415.416H295.776C295.712 413.048 295.12 411.24 294 409.992C292.88 408.712 291.312 408.072 289.296 408.072ZM316.673 405.048C322.273 405.048 325.073 408.136 325.073 414.312V427.32C325.073 427.928 324.897 428.408 324.545 428.76C324.225 429.08 323.761 429.24 323.153 429.24C322.545 429.24 322.065 429.08 321.713 428.76C321.361 428.408 321.185 427.928 321.185 427.32V414.552C321.185 412.376 320.753 410.792 319.889 409.8C319.057 408.808 317.713 408.312 315.857 408.312C313.713 408.312 312.001 408.968 310.721 410.28C309.441 411.592 308.801 413.368 308.801 415.608V427.32C308.801 427.928 308.625 428.408 308.273 428.76C307.953 429.08 307.489 429.24 306.881 429.24C306.273 429.24 305.793 429.08 305.441 428.76C305.089 428.408 304.913 427.928 304.913 427.32V407.064C304.913 406.488 305.089 406.024 305.441 405.672C305.793 405.32 306.273 405.144 306.881 405.144C307.457 405.144 307.905 405.32 308.225 405.672C308.577 406.024 308.753 406.472 308.753 407.016V409.464C309.521 408.024 310.593 406.936 311.969 406.2C313.345 405.432 314.913 405.048 316.673 405.048ZM341.842 429.336C339.666 429.336 337.73 428.84 336.034 427.848C334.37 426.856 333.074 425.448 332.146 423.624C331.25 421.8 330.802 419.688 330.802 417.288C330.802 414.888 331.266 412.76 332.194 410.904C333.154 409.048 334.482 407.608 336.178 406.584C337.874 405.56 339.826 405.048 342.034 405.048C343.25 405.048 344.45 405.224 345.634 405.576C346.85 405.896 347.906 406.376 348.802 407.016C349.378 407.4 349.778 407.784 350.002 408.168C350.258 408.52 350.386 408.92 350.386 409.368C350.386 409.816 350.258 410.184 350.002 410.472C349.778 410.76 349.474 410.904 349.09 410.904C348.866 410.904 348.626 410.84 348.37 410.712C348.114 410.584 347.89 410.456 347.698 410.328C347.538 410.2 347.426 410.12 347.362 410.088C346.53 409.544 345.73 409.112 344.962 408.792C344.226 408.472 343.314 408.312 342.226 408.312C339.89 408.312 338.066 409.112 336.754 410.712C335.474 412.28 334.834 414.472 334.834 417.288C334.834 420.104 335.474 422.28 336.754 423.816C338.066 425.352 339.89 426.12 342.226 426.12C343.314 426.12 344.242 425.96 345.01 425.64C345.81 425.32 346.61 424.888 347.41 424.344C347.762 424.12 348.098 423.928 348.418 423.768C348.738 423.608 349.01 423.528 349.234 423.528C349.586 423.528 349.874 423.672 350.098 423.96C350.354 424.248 350.482 424.616 350.482 425.064C350.482 425.48 350.37 425.864 350.146 426.216C349.922 426.536 349.506 426.904 348.898 427.32C348.002 427.928 346.914 428.424 345.634 428.808C344.386 429.16 343.122 429.336 341.842 429.336ZM364.859 429.336C362.651 429.336 360.699 428.84 359.003 427.848C357.339 426.856 356.043 425.448 355.115 423.624C354.219 421.768 353.771 419.624 353.771 417.192C353.771 414.76 354.219 412.632 355.115 410.808C356.043 408.952 357.339 407.528 359.003 406.536C360.699 405.544 362.651 405.048 364.859 405.048C367.067 405.048 369.019 405.544 370.715 406.536C372.411 407.528 373.707 408.952 374.603 410.808C375.531 412.632 375.995 414.76 375.995 417.192C375.995 419.624 375.531 421.768 374.603 423.624C373.707 425.448 372.411 426.856 370.715 427.848C369.019 428.84 367.067 429.336 364.859 429.336ZM364.859 426.12C367.163 426.12 368.923 425.368 370.139 423.864C371.387 422.328 372.011 420.104 372.011 417.192C372.011 414.344 371.387 412.152 370.139 410.616C368.891 409.048 367.131 408.264 364.859 408.264C362.587 408.264 360.827 409.048 359.579 410.616C358.331 412.152 357.707 414.344 357.707 417.192C357.707 420.072 358.315 422.28 359.531 423.816C360.779 425.352 362.555 426.12 364.859 426.12ZM393.548 405.048C399.148 405.048 401.948 408.136 401.948 414.312V427.32C401.948 427.928 401.772 428.408 401.42 428.76C401.1 429.08 400.636 429.24 400.028 429.24C399.42 429.24 398.94 429.08 398.588 428.76C398.236 428.408 398.06 427.928 398.06 427.32V414.552C398.06 412.376 397.628 410.792 396.764 409.8C395.932 408.808 394.588 408.312 392.732 408.312C390.588 408.312 388.876 408.968 387.596 410.28C386.316 411.592 385.676 413.368 385.676 415.608V427.32C385.676 427.928 385.5 428.408 385.148 428.76C384.828 429.08 384.364 429.24 383.756 429.24C383.148 429.24 382.668 429.08 382.316 428.76C381.964 428.408 381.788 427.928 381.788 427.32V407.064C381.788 406.488 381.964 406.024 382.316 405.672C382.668 405.32 383.148 405.144 383.756 405.144C384.332 405.144 384.78 405.32 385.1 405.672C385.452 406.024 385.628 406.472 385.628 407.016V409.464C386.396 408.024 387.468 406.936 388.844 406.2C390.22 405.432 391.788 405.048 393.548 405.048ZM419.869 426.168C420.989 426.264 421.549 426.776 421.549 427.704C421.549 428.248 421.341 428.664 420.925 428.952C420.541 429.208 419.949 429.304 419.149 429.24L417.853 429.144C415.293 428.952 413.405 428.184 412.189 426.84C410.973 425.496 410.365 423.464 410.365 420.744V408.696H407.149C406.605 408.696 406.173 408.568 405.853 408.312C405.565 408.024 405.421 407.656 405.421 407.208C405.421 406.728 405.565 406.344 405.853 406.056C406.173 405.768 406.605 405.624 407.149 405.624H410.365V400.2C410.365 399.592 410.541 399.128 410.893 398.808C411.245 398.456 411.725 398.28 412.333 398.28C412.909 398.28 413.373 398.456 413.725 398.808C414.077 399.128 414.253 399.592 414.253 400.2V405.624H419.581C420.093 405.624 420.493 405.768 420.781 406.056C421.101 406.344 421.261 406.728 421.261 407.208C421.261 407.656 421.101 408.024 420.781 408.312C420.493 408.568 420.093 408.696 419.581 408.696H414.253V420.936C414.253 422.696 414.605 423.976 415.309 424.776C416.045 425.544 417.133 425.976 418.573 426.072L419.869 426.168ZM436.949 405.144C438.293 405.048 438.965 405.592 438.965 406.776C438.965 407.288 438.821 407.704 438.533 408.024C438.245 408.312 437.749 408.488 437.045 408.552L435.605 408.696C433.461 408.888 431.861 409.656 430.805 411C429.781 412.312 429.269 413.864 429.269 415.656V427.32C429.269 427.96 429.093 428.44 428.741 428.76C428.389 429.08 427.925 429.24 427.349 429.24C426.773 429.24 426.293 429.08 425.909 428.76C425.557 428.408 425.381 427.928 425.381 427.32V407.064C425.381 406.456 425.573 405.992 425.957 405.672C426.341 405.32 426.805 405.144 427.349 405.144C427.861 405.144 428.293 405.32 428.645 405.672C428.997 405.992 429.173 406.44 429.173 407.016V409.704C429.845 408.296 430.789 407.224 432.005 406.488C433.253 405.752 434.677 405.32 436.277 405.192L436.949 405.144ZM451.668 405.048C457.524 405.048 460.452 408.12 460.452 414.264V427.32C460.452 427.896 460.276 428.36 459.924 428.712C459.604 429.064 459.156 429.24 458.58 429.24C458.004 429.24 457.54 429.064 457.188 428.712C456.836 428.36 456.66 427.896 456.66 427.32V425.016C456.052 426.392 455.124 427.464 453.876 428.232C452.628 428.968 451.188 429.336 449.556 429.336C448.052 429.336 446.66 429.032 445.38 428.424C444.132 427.816 443.14 426.968 442.404 425.88C441.668 424.792 441.3 423.592 441.3 422.28C441.3 420.52 441.748 419.16 442.644 418.2C443.54 417.208 445.012 416.504 447.06 416.088C449.108 415.64 451.956 415.416 455.604 415.416H456.66V413.832C456.66 411.912 456.26 410.504 455.46 409.608C454.692 408.712 453.428 408.264 451.668 408.264C449.492 408.264 447.284 408.856 445.044 410.04C444.18 410.584 443.572 410.856 443.22 410.856C442.836 410.856 442.516 410.712 442.26 410.424C442.004 410.136 441.876 409.768 441.876 409.32C441.876 408.872 442.004 408.488 442.26 408.168C442.548 407.816 442.996 407.464 443.604 407.112C444.724 406.472 445.988 405.976 447.396 405.624C448.836 405.24 450.26 405.048 451.668 405.048ZM450.084 426.264C452.004 426.264 453.572 425.624 454.788 424.344C456.036 423.032 456.66 421.352 456.66 419.304V417.912H455.796C452.98 417.912 450.836 418.04 449.364 418.296C447.892 418.52 446.836 418.92 446.196 419.496C445.588 420.04 445.284 420.856 445.284 421.944C445.284 423.192 445.732 424.232 446.628 425.064C447.556 425.864 448.708 426.264 450.084 426.264ZM486.337 394.92C486.945 394.92 487.425 395.096 487.777 395.448C488.129 395.8 488.305 396.248 488.305 396.792V427.32C488.305 427.896 488.129 428.36 487.777 428.712C487.425 429.064 486.945 429.24 486.337 429.24C485.729 429.24 485.249 429.064 484.897 428.712C484.577 428.36 484.417 427.896 484.417 427.32V424.728C483.713 426.2 482.673 427.336 481.297 428.136C479.953 428.936 478.369 429.336 476.545 429.336C474.497 429.336 472.689 428.824 471.121 427.8C469.553 426.776 468.337 425.352 467.473 423.528C466.609 421.672 466.177 419.528 466.177 417.096C466.177 414.696 466.609 412.584 467.473 410.76C468.337 408.936 469.553 407.528 471.121 406.536C472.689 405.544 474.497 405.048 476.545 405.048C478.369 405.048 479.953 405.448 481.297 406.248C482.673 407.048 483.713 408.184 484.417 409.656V396.792C484.417 396.216 484.577 395.768 484.897 395.448C485.249 395.096 485.729 394.92 486.337 394.92ZM477.313 426.12C479.585 426.12 481.329 425.352 482.545 423.816C483.793 422.248 484.417 420.04 484.417 417.192C484.417 414.344 483.793 412.152 482.545 410.616C481.329 409.08 479.585 408.312 477.313 408.312C475.041 408.312 473.265 409.08 471.985 410.616C470.737 412.152 470.113 414.312 470.113 417.096C470.113 419.944 470.737 422.168 471.985 423.768C473.265 425.336 475.041 426.12 477.313 426.12ZM505.058 405.048C510.914 405.048 513.842 408.12 513.842 414.264V427.32C513.842 427.896 513.666 428.36 513.314 428.712C512.994 429.064 512.546 429.24 511.97 429.24C511.394 429.24 510.93 429.064 510.578 428.712C510.226 428.36 510.05 427.896 510.05 427.32V425.016C509.442 426.392 508.514 427.464 507.266 428.232C506.018 428.968 504.578 429.336 502.946 429.336C501.442 429.336 500.05 429.032 498.77 428.424C497.522 427.816 496.53 426.968 495.794 425.88C495.058 424.792 494.69 423.592 494.69 422.28C494.69 420.52 495.138 419.16 496.034 418.2C496.93 417.208 498.402 416.504 500.45 416.088C502.498 415.64 505.346 415.416 508.994 415.416H510.05V413.832C510.05 411.912 509.65 410.504 508.85 409.608C508.082 408.712 506.818 408.264 505.058 408.264C502.882 408.264 500.674 408.856 498.434 410.04C497.57 410.584 496.962 410.856 496.61 410.856C496.226 410.856 495.906 410.712 495.65 410.424C495.394 410.136 495.266 409.768 495.266 409.32C495.266 408.872 495.394 408.488 495.65 408.168C495.938 407.816 496.386 407.464 496.994 407.112C498.114 406.472 499.378 405.976 500.786 405.624C502.226 405.24 503.65 405.048 505.058 405.048ZM503.474 426.264C505.394 426.264 506.962 425.624 508.178 424.344C509.426 423.032 510.05 421.352 510.05 419.304V417.912H509.186C506.37 417.912 504.226 418.04 502.754 418.296C501.282 418.52 500.226 418.92 499.586 419.496C498.978 420.04 498.674 420.856 498.674 421.944C498.674 423.192 499.122 424.232 500.018 425.064C500.946 425.864 502.098 426.264 503.474 426.264Z" fill="black"/>
</svg>
