<svg width="130" height="54" viewBox="0 0 130 54" fill="none" xmlns="http://www.w3.org/2000/svg">
<path d="M66.8647 8.208C68.5697 8.208 69.8483 6.804 69.8483 5.184C69.8483 3.456 68.4631 2.16 66.8647 2.16C65.1598 2.16 63.8811 3.564 63.8811 5.184C63.8811 6.804 65.2664 8.208 66.8647 8.208ZM79.0656 35.208C80.1844 35.208 81.25 34.83 82.0492 34.506C82.9016 34.128 83.4344 33.642 83.6475 33.264C83.8606 33.048 84.0205 32.67 84.0205 32.346C84.0205 32.13 83.9139 31.86 83.8074 31.482C83.4344 30.888 82.9016 30.564 82.3156 30.564C82.209 30.564 82.1024 30.564 81.9426 30.564C81.5697 30.672 81.4631 30.78 81.25 30.78C81.0369 30.888 80.7705 30.888 80.3975 30.888C79.7049 30.888 79.3852 30.672 79.1721 30.402C79.1721 30.402 78.6926 29.808 78.586 29.268C78.3729 28.242 78.3729 26.784 78.3729 25.758C78.3729 25.38 78.3729 4.644 78.3729 4.104C78.3729 3.24 78 2.7 77.4672 2.376C76.8811 1.998 76.2418 1.782 75.4959 1.782C74.75 1.782 74.1106 1.89 73.5246 2.376C72.9385 2.754 72.6188 3.294 72.6188 4.104V28.728C72.6188 30.132 72.9918 31.644 74.0041 32.994C75.0164 34.29 76.6147 35.208 79.0656 35.208ZM90.6803 15.066C92.0656 12.96 93.6639 12.69 94.3565 12.69C95.4754 12.69 96.7008 13.554 96.9672 15.228C96.9672 15.606 97.0738 15.822 97.0738 16.146C97.0738 17.388 96.5942 18.522 95.9549 19.278C94.25 21.276 91.7992 21.762 89.2951 22.032C89.2951 21.816 89.2951 21.546 89.2951 21.33C89.2951 19.278 89.6147 16.686 90.6803 15.066ZM87.0041 32.346C88.8688 34.236 91.4795 35.262 94.6762 35.262C96.3811 35.262 98.0328 34.884 99.2582 34.398C99.8442 34.182 100.377 33.804 100.75 33.48C101.123 33.102 101.336 32.616 101.336 32.238C101.336 32.13 101.336 32.13 101.336 32.022C101.229 31.158 100.484 30.618 99.7377 30.618C99.5246 30.618 99.3647 30.618 99.1516 30.726C98.2459 31.104 97.2869 31.212 96.168 31.212C95.7951 31.212 95.4754 31.212 95.1557 31.212C92.7049 30.996 91.3729 29.592 90.5738 28.08C90.0942 27.378 89.8811 26.568 89.7213 25.974C89.6147 25.758 89.6147 25.488 89.6147 25.38C92.8115 25.272 95.6885 24.786 98.3524 23.382C99.7377 22.518 101.336 21.384 102.295 19.656C102.881 18.522 103.148 17.172 103.148 16.038C103.148 15.66 103.148 15.336 103.041 15.012C102.455 11.88 99.5779 9.396 95.1024 9.396C92.0123 9.396 87.9631 10.638 85.5656 14.526C84.6598 16.038 83.3811 18.792 83.3811 22.572C83.3811 23.436 83.4877 24.3 83.5942 25.218C83.8606 28.026 85.0328 30.564 87.0041 32.346ZM31.4344 34.452C32.0205 34.83 32.6598 35.046 33.4057 35.046C34.0983 35.046 34.791 34.938 35.377 34.452C35.9631 34.074 36.2828 33.534 36.2828 32.724C36.2828 32.724 36.2828 19.332 36.2828 19.224C36.2828 18.198 36.6557 16.74 37.1885 15.714C37.7746 14.688 38.6803 13.824 40.0656 13.824C40.7582 13.824 41.0779 14.04 41.4508 14.418C42.0369 14.904 42.3033 15.66 42.4631 16.524C42.5696 17.388 42.6762 18.144 42.6762 18.63C42.6762 18.738 42.6762 32.292 42.6762 32.724C42.6762 33.588 43.1557 34.128 43.6885 34.452C44.2746 34.83 44.9139 35.046 45.6598 35.046C46.4057 35.046 47.1516 34.938 47.7377 34.452C48.3237 34.074 48.75 33.534 48.75 32.724V19.224C48.75 18.198 49.1229 16.74 49.6557 15.714C50.2418 14.688 51.1475 13.824 52.5328 13.824C53.2254 13.824 53.5451 14.04 53.918 14.418C54.5041 14.904 54.7705 15.66 54.9303 16.524C55.0369 17.388 55.1434 18.144 55.1434 18.63C55.1434 18.738 55.1434 31.806 55.1434 32.724C55.1434 33.588 55.6229 34.128 56.1557 34.452C56.7418 34.83 57.3811 35.046 58.127 35.046C58.8197 35.046 59.6188 34.938 60.2049 34.452C60.791 34.074 61.2172 33.534 61.2172 32.724V19.494C61.2172 16.092 60.5246 13.662 59.3524 11.88C58.127 10.152 56.3688 9.342 54.1844 9.342C52.1065 9.342 50.6147 10.368 49.4959 11.448C48.6434 12.312 48.2705 13.068 47.8975 13.824C47.418 12.42 46.6721 11.34 45.7131 10.692C44.5942 9.774 43.2623 9.45 41.6639 9.45C39.0533 9.45 37.2951 11.07 36.1229 12.582V12.474C36.1229 11.61 35.75 11.07 35.2172 10.746C34.6311 10.368 33.9918 10.152 33.2459 10.152C32.5533 10.152 31.8606 10.26 31.2746 10.746C30.6352 11.07 30.3156 11.61 30.3156 12.42C30.3156 12.42 30.3156 32.238 30.3156 32.67C30.4221 33.372 30.8483 33.966 31.4344 34.452ZM68.836 10.53C68.25 10.152 67.6106 9.936 66.8647 9.936C66.1721 9.936 65.4795 10.044 64.8934 10.53C64.3074 10.908 63.9877 11.448 63.9877 12.258C63.9877 12.258 63.9877 32.076 63.9877 32.508C63.9877 33.372 64.3606 33.912 64.8934 34.236C65.4795 34.614 66.1188 34.83 66.8647 34.83C67.5574 34.83 68.25 34.722 68.836 34.236C69.4221 33.858 69.7418 33.318 69.7418 32.508C69.7418 32.508 69.7418 12.69 69.7418 12.258C69.6885 11.556 69.3688 11.016 68.836 10.53ZM128.135 21.06C128.135 20.952 128.029 20.844 127.922 20.682C127.816 20.682 127.709 20.682 127.549 20.79C127.549 20.79 127.443 20.898 127.336 21.006C127.229 21.114 126.857 21.492 126.484 21.87C125.791 22.572 124.779 23.49 123.5 24.516C122.594 25.38 121.422 26.244 120.143 27.162C120.143 26.784 120.037 26.46 120.037 26.136C119.664 24.732 118.918 23.652 117.852 22.734C116.361 21.492 114.389 20.628 112.898 19.71C112.045 19.224 111.406 18.792 110.926 18.198C110.447 17.604 110.074 17.064 110.02 16.308C110.02 16.2 110.02 16.092 110.02 15.822C110.02 15.12 110.234 14.31 110.926 13.716C111.299 13.338 112.152 12.798 113.537 12.798C115.242 12.798 116.627 13.5 117.479 13.5C118.385 13.5 119.184 13.014 119.451 12.096C119.451 11.988 119.557 11.718 119.557 11.502C119.557 10.476 118.705 9.504 117.586 9.288C117.586 9.288 116.574 8.91 114.496 8.91C111.512 8.91 109.061 9.612 107.357 11.016C105.652 12.258 104.746 14.148 104.746 16.362C104.746 16.956 104.852 17.496 104.959 18.252C105.652 20.898 108.156 22.356 110.607 23.598C111.725 24.192 113.057 24.84 113.803 25.488C114.709 26.19 115.295 26.892 115.402 27.594C115.402 27.702 115.402 27.81 115.402 27.972C115.402 28.674 115.029 29.376 114.496 29.97C113.91 30.456 112.898 30.888 111.512 30.888H111.406C109.914 30.888 108.689 30.402 107.729 30.024C107.357 29.808 106.877 29.808 106.611 29.808C105.705 29.808 105.012 30.402 104.906 31.32C104.906 31.428 104.906 31.536 104.906 31.536C104.906 32.238 105.279 32.67 105.758 33.156C106.451 33.75 107.463 34.182 108.369 34.398C97.8729 39.744 83.3279 44.55 64.8934 44.55C46.2459 44.55 31.6475 39.636 21.0983 34.29C23.2828 33.804 25.041 33.048 26.2664 31.806C28.1311 30.078 28.9836 27.81 28.9836 25.434C28.9836 24.84 28.9836 24.408 28.877 23.814C28.5041 21.924 27.6516 20.574 26.3729 19.386C24.4016 17.658 21.8975 16.362 19.8197 15.12C18.8074 14.526 17.7418 13.878 17.1024 13.122C16.4631 12.366 15.9836 11.718 15.877 10.908C15.877 10.692 15.877 10.422 15.877 10.206C15.877 9.18 16.25 8.1 17.1024 7.29C17.9549 6.426 19.2869 5.88599 21.2582 5.88599C22.2705 5.88599 23.6024 6.102 24.9344 6.48C25.4139 6.588 25.7869 6.696 26.0533 6.696C27.0656 6.696 27.7582 6.102 28.1311 5.454C28.2377 5.238 28.2377 4.86 28.2377 4.59C28.2377 3.888 27.8647 3.348 27.3852 2.97C26.9057 2.592 26.2664 2.268 25.5205 2.106C24.1352 1.89 22.8033 1.62 21.1516 1.62C17.1024 1.62 14.1188 2.75399 12.1475 4.536C10.1762 6.318 9.37703 8.64 9.37703 10.854C9.37703 11.34 9.37703 11.772 9.48358 12.258C10.0696 15.39 12.6803 17.496 15.3975 19.116C18.0082 20.736 20.8319 22.14 21.8442 23.544C22.4303 24.408 22.6967 25.272 22.6967 26.19C22.6967 27.108 22.3237 28.08 21.8442 28.674C20.8319 29.916 18.9672 30.78 16.8893 30.78C15.6639 30.78 14.2787 30.402 13.1065 29.754C13 29.754 12.8934 29.646 12.8934 29.646C10.0164 27.756 7.61883 25.92 5.86063 24.408C4.47539 23.274 3.40981 22.302 2.87703 21.762C2.50408 21.384 2.29096 21.168 2.02457 20.898C1.91801 20.79 1.81145 20.682 1.81145 20.682C1.7049 20.574 1.59834 20.574 1.4385 20.574C1.33195 20.574 1.22539 20.682 1.22539 20.952C1.06555 21.33 1.06555 22.032 1.06555 22.734V22.842C1.06555 24.84 1.75817 26.352 3.51637 27.972C3.99588 28.458 27.4385 52.596 65 52.596C102.615 52.596 126.057 28.458 126.484 27.972C128.189 26.352 128.934 24.84 128.934 22.842V22.788C128.242 22.194 128.242 21.6 128.135 21.06Z" fill="white"/>
</svg>
