<svg width="346" height="58" viewBox="0 0 346 58" fill="none" xmlns="http://www.w3.org/2000/svg">
<path d="M175.061 45.4471C174.39 44.8003 173.358 44.8634 172.76 45.5838C169.359 49.6694 164.455 52.0111 159.302 52.0111C154.151 52.0111 149.245 49.6694 145.845 45.5838C145.243 44.8634 144.215 44.8003 143.543 45.4471C142.871 46.0921 142.816 47.1998 143.416 47.9219C147.434 52.749 153.225 55.5165 159.302 55.5165C165.381 55.5165 171.172 52.7472 175.189 47.9219C175.788 47.1998 175.731 46.0921 175.061 45.4471Z" fill="white"/>
<path d="M14.976 48.384C12.576 48.384 10.272 48.032 8.064 47.328C5.888 46.592 4.144 45.616 2.832 44.4C2.352 43.952 2.112 43.392 2.112 42.72C2.112 42.272 2.24 41.888 2.496 41.568C2.752 41.216 3.056 41.04 3.408 41.04C3.824 41.04 4.272 41.216 4.752 41.568C7.728 43.872 11.12 45.024 14.928 45.024C17.68 45.024 19.792 44.496 21.264 43.44C22.736 42.384 23.472 40.88 23.472 38.928C23.472 37.808 23.12 36.912 22.416 36.24C21.712 35.536 20.784 34.976 19.632 34.56C18.48 34.144 16.928 33.712 14.976 33.264C12.352 32.656 10.192 32.016 8.496 31.344C6.832 30.672 5.472 29.712 4.416 28.464C3.392 27.216 2.88 25.584 2.88 23.568C2.88 21.648 3.392 19.952 4.416 18.48C5.472 16.976 6.928 15.824 8.784 15.024C10.672 14.192 12.816 13.776 15.216 13.776C17.456 13.776 19.536 14.128 21.456 14.832C23.408 15.504 25.04 16.48 26.352 17.76C26.864 18.272 27.12 18.832 27.12 19.44C27.12 19.888 26.992 20.288 26.736 20.64C26.48 20.96 26.176 21.12 25.824 21.12C25.472 21.12 25.008 20.944 24.432 20.592C22.864 19.312 21.408 18.416 20.064 17.904C18.72 17.392 17.104 17.136 15.216 17.136C12.56 17.136 10.496 17.696 9.024 18.816C7.552 19.904 6.816 21.44 6.816 23.424C6.816 25.12 7.456 26.4 8.736 27.264C10.048 28.096 12.048 28.832 14.736 29.472C17.648 30.176 19.936 30.832 21.6 31.44C23.264 32.016 24.64 32.896 25.728 34.08C26.848 35.264 27.408 36.848 27.408 38.832C27.408 40.72 26.88 42.384 25.824 43.824C24.8 45.264 23.344 46.384 21.456 47.184C19.568 47.984 17.408 48.384 14.976 48.384ZM59.241 24.048C64.425 24.048 67.017 27.136 67.017 33.312V46.32C67.017 46.928 66.841 47.408 66.489 47.76C66.137 48.08 65.673 48.24 65.097 48.24C64.521 48.24 64.041 48.08 63.657 47.76C63.305 47.408 63.129 46.928 63.129 46.32V33.408C63.129 31.264 62.745 29.712 61.977 28.752C61.209 27.792 60.009 27.312 58.377 27.312C56.425 27.312 54.889 27.968 53.769 29.28C52.649 30.592 52.089 32.368 52.089 34.608V46.32C52.089 46.928 51.897 47.408 51.513 47.76C51.161 48.08 50.697 48.24 50.121 48.24C49.545 48.24 49.081 48.08 48.729 47.76C48.377 47.408 48.201 46.928 48.201 46.32V33.408C48.201 31.264 47.817 29.712 47.049 28.752C46.281 27.792 45.065 27.312 43.401 27.312C41.481 27.312 39.945 27.968 38.793 29.28C37.673 30.592 37.113 32.368 37.113 34.608V46.32C37.113 46.928 36.937 47.408 36.585 47.76C36.233 48.08 35.769 48.24 35.193 48.24C34.617 48.24 34.137 48.08 33.753 47.76C33.401 47.408 33.225 46.928 33.225 46.32V26.064C33.225 25.488 33.401 25.024 33.753 24.672C34.137 24.32 34.617 24.144 35.193 24.144C35.737 24.144 36.185 24.32 36.537 24.672C36.889 24.992 37.065 25.44 37.065 26.016V28.32C37.769 26.944 38.745 25.888 39.993 25.152C41.241 24.416 42.681 24.048 44.313 24.048C47.961 24.048 50.345 25.584 51.465 28.656C52.137 27.248 53.161 26.128 54.537 25.296C55.913 24.464 57.481 24.048 59.241 24.048ZM76.068 48.24C75.492 48.24 75.012 48.08 74.628 47.76C74.276 47.408 74.1 46.928 74.1 46.32V26.064C74.1 25.456 74.276 24.992 74.628 24.672C75.012 24.32 75.492 24.144 76.068 24.144C76.644 24.144 77.108 24.32 77.46 24.672C77.812 24.992 77.988 25.456 77.988 26.064V46.32C77.988 46.96 77.812 47.44 77.46 47.76C77.108 48.08 76.644 48.24 76.068 48.24ZM76.068 19.104C75.3 19.104 74.676 18.88 74.196 18.432C73.716 17.984 73.476 17.392 73.476 16.656C73.476 15.952 73.716 15.376 74.196 14.928C74.676 14.48 75.3 14.256 76.068 14.256C76.836 14.256 77.46 14.48 77.94 14.928C78.42 15.376 78.66 15.952 78.66 16.656C78.66 17.392 78.42 17.984 77.94 18.432C77.46 18.88 76.836 19.104 76.068 19.104ZM87.2243 48.24C86.6483 48.24 86.1683 48.08 85.7843 47.76C85.4323 47.408 85.2563 46.928 85.2563 46.32V15.84C85.2563 15.232 85.4323 14.768 85.7843 14.448C86.1683 14.096 86.6483 13.92 87.2243 13.92C87.7683 13.92 88.2163 14.096 88.5683 14.448C88.9523 14.768 89.1443 15.232 89.1443 15.84V46.32C89.1443 46.928 88.9523 47.408 88.5683 47.76C88.2163 48.08 87.7683 48.24 87.2243 48.24ZM114.509 42.576C114.861 42.576 115.165 42.72 115.421 43.008C115.677 43.296 115.805 43.664 115.805 44.112C115.805 44.912 115.245 45.648 114.125 46.32C112.973 46.992 111.757 47.504 110.477 47.856C109.197 48.176 107.949 48.336 106.733 48.336C103.117 48.336 100.253 47.264 98.1405 45.12C96.0605 42.976 95.0205 40.016 95.0205 36.24C95.0205 33.84 95.4845 31.728 96.4125 29.904C97.3405 28.048 98.6365 26.608 100.301 25.584C101.997 24.56 103.917 24.048 106.061 24.048C109.101 24.048 111.517 25.04 113.309 27.024C115.101 29.008 115.997 31.696 115.997 35.088C115.997 35.728 115.869 36.192 115.613 36.48C115.357 36.768 114.941 36.912 114.365 36.912H98.9085C99.1965 42.416 101.805 45.168 106.733 45.168C107.981 45.168 109.053 45.008 109.949 44.688C110.845 44.336 111.805 43.872 112.829 43.296C113.661 42.816 114.221 42.576 114.509 42.576ZM106.109 27.072C104.061 27.072 102.413 27.712 101.165 28.992C99.9485 30.272 99.2285 32.08 99.0045 34.416H112.589C112.525 32.048 111.933 30.24 110.813 28.992C109.693 27.712 108.125 27.072 106.109 27.072ZM129.597 48.336C128.125 48.336 126.717 48.16 125.373 47.808C124.061 47.456 122.893 46.96 121.869 46.32C121.293 45.936 120.877 45.584 120.621 45.264C120.397 44.912 120.285 44.496 120.285 44.016C120.285 43.6 120.397 43.264 120.621 43.008C120.877 42.72 121.197 42.576 121.581 42.576C121.965 42.576 122.525 42.816 123.261 43.296C124.221 43.872 125.165 44.336 126.093 44.688C127.053 45.008 128.237 45.168 129.645 45.168C131.373 45.168 132.717 44.864 133.677 44.256C134.637 43.648 135.117 42.768 135.117 41.616C135.117 40.912 134.941 40.352 134.589 39.936C134.237 39.488 133.629 39.104 132.765 38.784C131.901 38.432 130.637 38.08 128.973 37.728C126.157 37.12 124.141 36.304 122.925 35.28C121.709 34.256 121.101 32.864 121.101 31.104C121.101 29.728 121.485 28.512 122.253 27.456C123.021 26.4 124.077 25.568 125.421 24.96C126.797 24.352 128.349 24.048 130.077 24.048C131.325 24.048 132.525 24.224 133.677 24.576C134.861 24.896 135.901 25.36 136.797 25.968C137.885 26.736 138.429 27.536 138.429 28.368C138.429 28.784 138.301 29.136 138.045 29.424C137.789 29.712 137.485 29.856 137.133 29.856C136.749 29.856 136.173 29.584 135.405 29.04C134.509 28.464 133.661 28.016 132.861 27.696C132.061 27.376 131.069 27.216 129.885 27.216C128.381 27.216 127.165 27.552 126.237 28.224C125.341 28.896 124.893 29.792 124.893 30.912C124.893 31.616 125.053 32.192 125.373 32.64C125.725 33.056 126.285 33.44 127.053 33.792C127.853 34.112 128.989 34.432 130.461 34.752C132.637 35.232 134.317 35.76 135.501 36.336C136.717 36.912 137.581 37.616 138.093 38.448C138.605 39.28 138.861 40.336 138.861 41.616C138.861 43.632 138.013 45.264 136.317 46.512C134.621 47.728 132.381 48.336 129.597 48.336Z" fill="white"/>
<path d="M209.033 44.112C209.417 44.688 209.609 45.248 209.609 45.792C209.609 46.528 209.305 47.136 208.697 47.616C208.121 48.096 207.433 48.336 206.633 48.336C206.121 48.336 205.625 48.224 205.145 48C204.697 47.744 204.313 47.376 203.993 46.896L197.609 37.2C196.969 36.176 196.281 35.456 195.545 35.04C194.841 34.624 193.913 34.416 192.761 34.416H188.057V45.168C188.057 46.128 187.785 46.896 187.241 47.472C186.697 48.016 185.961 48.288 185.033 48.288C184.105 48.288 183.353 48.016 182.777 47.472C182.233 46.896 181.961 46.128 181.961 45.168V17.088C181.961 16.16 182.217 15.44 182.729 14.928C183.273 14.416 184.009 14.16 184.937 14.16H196.937C200.777 14.16 203.689 15.024 205.673 16.752C207.689 18.448 208.697 20.912 208.697 24.144C208.697 26.768 207.945 28.928 206.441 30.624C204.969 32.288 202.873 33.36 200.153 33.84C201.081 34.064 201.897 34.464 202.601 35.04C203.305 35.616 203.993 36.416 204.665 37.44L209.033 44.112ZM196.073 29.664C198.409 29.664 200.121 29.232 201.209 28.368C202.297 27.472 202.841 26.112 202.841 24.288C202.841 22.432 202.297 21.088 201.209 20.256C200.121 19.392 198.409 18.96 196.073 18.96H188.009V29.664H196.073ZM233.384 41.568C233.928 41.568 234.36 41.776 234.68 42.192C235.032 42.608 235.208 43.168 235.208 43.872C235.208 44.864 234.616 45.696 233.432 46.368C232.344 46.976 231.112 47.472 229.736 47.856C228.36 48.208 227.048 48.384 225.799 48.384C222.024 48.384 219.032 47.296 216.824 45.12C214.616 42.944 213.512 39.968 213.512 36.192C213.512 33.792 213.992 31.664 214.952 29.808C215.912 27.952 217.256 26.512 218.984 25.488C220.744 24.464 222.728 23.952 224.936 23.952C227.048 23.952 228.888 24.416 230.456 25.344C232.024 26.272 233.24 27.584 234.104 29.28C234.968 30.976 235.4 32.976 235.4 35.28C235.4 36.656 234.792 37.344 233.576 37.344H219.416C219.608 39.552 220.232 41.184 221.288 42.24C222.344 43.264 223.88 43.776 225.896 43.776C226.92 43.776 227.816 43.648 228.584 43.392C229.384 43.136 230.28 42.784 231.272 42.336C232.232 41.824 232.936 41.568 233.384 41.568ZM225.08 28.176C223.448 28.176 222.136 28.688 221.144 29.712C220.184 30.736 219.608 32.208 219.416 34.128H230.264C230.2 32.176 229.72 30.704 228.824 29.712C227.928 28.688 226.68 28.176 225.08 28.176ZM250.484 23.952C253.748 23.952 256.164 24.768 257.732 26.4C259.332 28 260.132 30.448 260.132 33.744V45.456C260.132 46.32 259.876 47.008 259.364 47.52C258.852 48 258.148 48.24 257.252 48.24C256.42 48.24 255.732 47.984 255.188 47.472C254.676 46.96 254.42 46.288 254.42 45.456V44.4C253.876 45.648 253.012 46.624 251.828 47.328C250.676 48.032 249.332 48.384 247.796 48.384C246.228 48.384 244.804 48.064 243.523 47.424C242.244 46.784 241.236 45.904 240.5 44.784C239.764 43.664 239.396 42.416 239.396 41.04C239.396 39.312 239.828 37.952 240.692 36.96C241.588 35.968 243.028 35.248 245.012 34.8C246.996 34.352 249.732 34.128 253.22 34.128H254.42V33.024C254.42 31.456 254.084 30.32 253.412 29.616C252.74 28.88 251.652 28.512 250.148 28.512C249.22 28.512 248.276 28.656 247.316 28.944C246.356 29.2 245.22 29.584 243.908 30.096C243.076 30.512 242.468 30.72 242.084 30.72C241.508 30.72 241.028 30.512 240.644 30.096C240.292 29.68 240.116 29.136 240.116 28.464C240.116 27.92 240.244 27.456 240.5 27.072C240.788 26.656 241.252 26.272 241.892 25.92C243.012 25.312 244.34 24.832 245.876 24.48C247.444 24.128 248.98 23.952 250.484 23.952ZM248.996 44.064C250.596 44.064 251.892 43.536 252.884 42.48C253.908 41.392 254.42 40 254.42 38.304V37.296H253.556C251.412 37.296 249.748 37.392 248.564 37.584C247.38 37.776 246.532 38.112 246.02 38.592C245.508 39.072 245.252 39.728 245.252 40.56C245.252 41.584 245.604 42.432 246.308 43.104C247.044 43.744 247.94 44.064 248.996 44.064ZM269.205 48.288C268.341 48.288 267.621 48.048 267.045 47.568C266.501 47.056 266.229 46.336 266.229 45.408V16.752C266.229 15.824 266.501 15.12 267.045 14.64C267.621 14.16 268.341 13.92 269.205 13.92C270.069 13.92 270.789 14.16 271.365 14.64C271.941 15.12 272.229 15.824 272.229 16.752V45.408C272.229 46.336 271.941 47.056 271.365 47.568C270.789 48.048 270.069 48.288 269.205 48.288ZM281.393 48.288C280.529 48.288 279.809 48.048 279.233 47.568C278.689 47.056 278.417 46.336 278.417 45.408V26.88C278.417 25.952 278.689 25.248 279.233 24.768C279.809 24.288 280.529 24.048 281.393 24.048C282.257 24.048 282.977 24.288 283.553 24.768C284.129 25.248 284.417 25.952 284.417 26.88V45.408C284.417 46.336 284.129 47.056 283.553 47.568C282.977 48.048 282.257 48.288 281.393 48.288ZM281.393 19.776C280.305 19.776 279.441 19.488 278.801 18.912C278.161 18.304 277.841 17.52 277.841 16.56C277.841 15.6 278.161 14.832 278.801 14.256C279.441 13.68 280.305 13.392 281.393 13.392C282.449 13.392 283.297 13.68 283.937 14.256C284.609 14.832 284.945 15.6 284.945 16.56C284.945 17.52 284.625 18.304 283.985 18.912C283.345 19.488 282.481 19.776 281.393 19.776ZM308.076 43.488C309.868 43.488 310.764 44.24 310.764 45.744C310.764 46.448 310.54 47.008 310.092 47.424C309.644 47.808 308.972 48 308.076 48H292.044C291.244 48 290.588 47.744 290.076 47.232C289.564 46.72 289.308 46.112 289.308 45.408C289.308 44.672 289.596 43.968 290.172 43.296L302.508 29.04H291.804C290.908 29.04 290.236 28.848 289.788 28.464C289.34 28.08 289.116 27.52 289.116 26.784C289.116 26.048 289.34 25.488 289.788 25.104C290.236 24.72 290.908 24.528 291.804 24.528H307.308C308.14 24.528 308.796 24.784 309.276 25.296C309.788 25.776 310.044 26.384 310.044 27.12C310.044 27.888 309.772 28.592 309.228 29.232L296.844 43.488H308.076ZM325.015 23.952C328.279 23.952 330.695 24.768 332.263 26.4C333.863 28 334.663 30.448 334.663 33.744V45.456C334.663 46.32 334.407 47.008 333.895 47.52C333.383 48 332.679 48.24 331.783 48.24C330.951 48.24 330.263 47.984 329.719 47.472C329.207 46.96 328.951 46.288 328.951 45.456V44.4C328.407 45.648 327.543 46.624 326.359 47.328C325.207 48.032 323.863 48.384 322.327 48.384C320.759 48.384 319.335 48.064 318.055 47.424C316.775 46.784 315.767 45.904 315.031 44.784C314.295 43.664 313.927 42.416 313.927 41.04C313.927 39.312 314.359 37.952 315.223 36.96C316.119 35.968 317.559 35.248 319.543 34.8C321.527 34.352 324.263 34.128 327.751 34.128H328.951V33.024C328.951 31.456 328.615 30.32 327.943 29.616C327.271 28.88 326.183 28.512 324.679 28.512C323.751 28.512 322.807 28.656 321.847 28.944C320.887 29.2 319.751 29.584 318.439 30.096C317.607 30.512 316.999 30.72 316.615 30.72C316.039 30.72 315.559 30.512 315.175 30.096C314.823 29.68 314.647 29.136 314.647 28.464C314.647 27.92 314.775 27.456 315.031 27.072C315.319 26.656 315.783 26.272 316.423 25.92C317.543 25.312 318.871 24.832 320.407 24.48C321.975 24.128 323.511 23.952 325.015 23.952ZM323.527 44.064C325.127 44.064 326.423 43.536 327.415 42.48C328.439 41.392 328.951 40 328.951 38.304V37.296H328.087C325.943 37.296 324.279 37.392 323.095 37.584C321.911 37.776 321.063 38.112 320.551 38.592C320.039 39.072 319.783 39.728 319.783 40.56C319.783 41.584 320.135 42.432 320.839 43.104C321.575 43.744 322.471 44.064 323.527 44.064Z" fill="#FF5A00"/>
</svg>
